<?xml version="1.0" encoding="UTF-8"?>
<!DOCTYPE svg PUBLIC "-//W3C//DTD SVG 1.1//EN" "http://www.w3.org/Graphics/SVG/1.1/DTD/svg11.dtd">
<svg xmlns="http://www.w3.org/2000/svg" version="1.1" width="256px" height="256px" style="shape-rendering:geometricPrecision; text-rendering:geometricPrecision; image-rendering:optimizeQuality; fill-rule:evenodd; clip-rule:evenodd" xmlns:xlink="http://www.w3.org/1999/xlink">
<g><path style="opacity:0.959" fill="#fa4454" d="M 8.5,104.5 C 24.1785,111.756 39.6785,119.422 55,127.5C 62.9692,118.53 71.3025,109.863 80,101.5C 78.6995,96.1018 76.8662,90.7684 74.5,85.5C 82.1378,84.5025 89.8045,84.1692 97.5,84.5C 97.6674,73.8203 98.1674,63.1537 99,52.5C 107.181,57.8703 115.681,62.5369 124.5,66.5C 127.9,54.9657 131.9,43.6324 136.5,32.5C 141.213,41.6289 145.546,50.9622 149.5,60.5C 166.872,60.1325 182.705,64.7992 197,74.5C 198.14,60.1232 201.807,46.4565 208,33.5C 216.313,23.2928 224.98,22.9595 234,32.5C 238.186,39.5768 240.686,47.2435 241.5,55.5C 247.144,59.4072 248.978,64.7405 247,71.5C 240.784,79.9583 233.784,80.625 226,73.5C 222.274,66.4007 223.608,60.4007 230,55.5C 230.203,48.7715 228.37,42.6048 224.5,37C 221.49,34.7781 218.99,35.2781 217,38.5C 211.227,52.0937 207.727,66.2603 206.5,81C 217.385,91.5555 227.218,103.055 236,115.5C 236.667,116.5 236.667,117.5 236,118.5C 216.861,143.273 197.361,167.773 177.5,192C 171.132,189.904 164.965,187.071 159,183.5C 156.623,185.865 155.79,188.532 156.5,191.5C 164.261,195.888 172.261,199.388 180.5,202C 200.88,176.076 221.38,150.242 242,124.5C 244.223,127.779 246.057,131.279 247.5,135C 226.266,163.301 204.433,191.134 182,218.5C 167.406,212.036 153.073,205.036 139,197.5C 129,209.5 119,221.5 109,233.5C 109.232,225.842 109.732,218.175 110.5,210.5C 101.494,210.666 92.4938,210.5 83.5,210C 89.2753,206.716 94.6087,202.883 99.5,198.5C 94.1667,196.167 88.8333,193.833 83.5,191.5C 91.1186,188.571 98.7853,185.738 106.5,183C 93.0058,175.503 79.1725,168.67 65,162.5C 46.8512,172.908 28.8512,183.575 11,194.5C 16.594,184.517 22.7607,174.683 29.5,165C 23.8439,164.112 18.1773,163.279 12.5,162.5C 18.8702,156.132 24.8702,149.465 30.5,142.5C 22.7121,130.058 15.3788,117.391 8.5,104.5 Z M 191.5,105.5 C 194.247,105.187 196.914,105.52 199.5,106.5C 194.124,109.927 193.124,114.427 196.5,120C 200.753,122.985 205.087,123.152 209.5,120.5C 210.444,126.128 208.444,130.628 203.5,134C 190.688,138.594 182.688,134.26 179.5,121C 180.414,113.273 184.414,108.106 191.5,105.5 Z M 146.5,111.5 C 149.753,111.562 152.753,112.396 155.5,114C 153.351,120.592 151.351,127.259 149.5,134C 156.809,140.968 164.476,147.635 172.5,154C 171.167,155.667 169.833,157.333 168.5,159C 167.5,159.667 166.5,159.667 165.5,159C 156.66,151.658 147.994,144.158 139.5,136.5C 142.449,128.321 144.783,119.988 146.5,111.5 Z M 124.5,123.5 C 127.421,124.481 130.421,125.315 133.5,126C 131.833,131 130.167,136 128.5,141C 133.941,144.807 139.108,148.973 144,153.5C 144.015,156.458 142.681,158.792 140,160.5C 133.333,155.167 126.667,149.833 120,144.5C 121.012,137.446 122.512,130.446 124.5,123.5 Z"/></g>
<g><path style="opacity:0.004" fill="#fa4454" d="M 8.5,104.5 C 7.83333,103.167 7.83333,103.167 8.5,104.5 Z"/></g>
</svg>
