<?xml version="1.0" encoding="UTF-8"?>
<!DOCTYPE svg PUBLIC "-//W3C//DTD SVG 1.1//EN" "http://www.w3.org/Graphics/SVG/1.1/DTD/svg11.dtd">
<svg xmlns="http://www.w3.org/2000/svg" version="1.1" width="256px" height="256px" style="shape-rendering:geometricPrecision; text-rendering:geometricPrecision; image-rendering:optimizeQuality; fill-rule:evenodd; clip-rule:evenodd" xmlns:xlink="http://www.w3.org/1999/xlink">
<g><path style="opacity:0.977" fill="#fa4454" d="M 119.5,55.5 C 144.188,54.3703 167.521,59.3703 189.5,70.5C 189.833,70.8333 190.167,71.1667 190.5,71.5C 186.372,75.9236 183.705,81.0903 182.5,87C 185.215,95.0342 190.882,98.5342 199.5,97.5C 205.56,97.1935 211.393,95.8602 217,93.5C 219.491,96.4728 221.491,99.8061 223,103.5C 225,109.5 227,115.5 229,121.5C 234.094,124.318 239.594,125.985 245.5,126.5C 245.814,134.087 245.481,141.587 244.5,149C 222.498,160.101 199.165,165.267 174.5,164.5C 173.668,176.157 173.001,187.823 172.5,199.5C 168.774,199.823 165.107,199.489 161.5,198.5C 157.5,187.833 153.5,177.167 149.5,166.5C 122.606,165.178 95.7729,163.844 69,162.5C 67.4168,174.832 65.9168,187.165 64.5,199.5C 60.2325,199.797 56.0659,199.464 52,198.5C 38.0764,169.322 34.0764,138.989 40,107.5C 37.589,105.422 34.9223,103.755 32,102.5C 23.1335,104.988 15.6335,102.822 9.5,96C 11.3848,93.7776 13.5515,91.9443 16,90.5C 18.4082,92.8544 21.2416,94.0211 24.5,94C 17.8656,84.1687 19.5323,76.1687 29.5,70C 35.8249,67.6652 41.8249,68.3319 47.5,72C 50.8298,75.8215 51.3298,79.9881 49,84.5C 46.9039,89.0268 44.0706,93.0268 40.5,96.5C 41.1449,97.646 41.9783,98.646 43,99.5C 55.6356,78.9115 73.8023,65.7448 97.5,60C 104.947,58.375 112.28,56.875 119.5,55.5 Z M 35.5,77.5 C 37.9775,77.0508 39.9775,77.7175 41.5,79.5C 39.6233,83.8803 36.7899,87.5469 33,90.5C 31.5555,87.9454 30.3888,85.2787 29.5,82.5C 30.419,79.4556 32.419,77.789 35.5,77.5 Z M 199.5,117.5 C 205.113,116.079 207.28,118.079 206,123.5C 199.423,126.088 197.256,124.088 199.5,117.5 Z"/></g>
<g><path style="opacity:0.918" fill="#fa4454" d="M 219.5,64.5 C 220.833,64.5 222.167,64.5 223.5,64.5C 226.068,75.3102 222.402,83.1435 212.5,88C 205.293,90.8436 198.127,91.0102 191,88.5C 190.245,85.6967 190.578,83.0301 192,80.5C 199.639,72.4343 208.805,67.101 219.5,64.5 Z"/></g>
<g><path style="opacity:0.88" fill="#fa4454" d="M 230.5,77.5 C 233.5,77.5 236.5,77.5 239.5,77.5C 240.186,86.4742 236.519,92.8076 228.5,96.5C 226.474,94.2951 224.808,91.7951 223.5,89C 226.986,85.8605 229.319,82.0272 230.5,77.5 Z"/></g>
<g><path style="opacity:0.916" fill="#fa4454" d="M 84.5,170.5 C 91.8131,171.187 99.1464,171.521 106.5,171.5C 107.167,180.833 107.833,190.167 108.5,199.5C 103.57,199.803 98.7367,199.469 94,198.5C 90.5256,189.243 87.359,179.91 84.5,170.5 Z"/></g>
<g><path style="opacity:0.916" fill="#fa4454" d="M 193.5,170.5 C 195.833,170.5 198.167,170.5 200.5,170.5C 201.32,180.192 202.32,189.859 203.5,199.5C 198.901,199.8 194.401,199.467 190,198.5C 186.052,189.825 183.219,180.825 181.5,171.5C 185.702,171.817 189.702,171.483 193.5,170.5 Z"/></g>
</svg>
