<?xml version="1.0" encoding="UTF-8"?>
<!DOCTYPE svg PUBLIC "-//W3C//DTD SVG 1.1//EN" "http://www.w3.org/Graphics/SVG/1.1/DTD/svg11.dtd">
<svg xmlns="http://www.w3.org/2000/svg" version="1.1" width="256px" height="256px" style="shape-rendering:geometricPrecision; text-rendering:geometricPrecision; image-rendering:optimizeQuality; fill-rule:evenodd; clip-rule:evenodd" xmlns:xlink="http://www.w3.org/1999/xlink">
<g><path style="opacity:0.942" fill="#fa4454" d="M 100.5,12.5 C 103.998,15.0919 106.831,18.4252 109,22.5C 114.39,29.9417 121.557,33.7751 130.5,34C 133.446,33.1939 136.112,31.8605 138.5,30C 143.716,24.2888 148.716,18.4554 153.5,12.5C 170.898,23.7415 183.398,39.0748 191,58.5C 199.61,83.3903 211.61,106.39 227,127.5C 231.677,133.343 236.843,138.676 242.5,143.5C 237.35,150.641 230.684,155.975 222.5,159.5C 217.125,154.491 211.792,149.491 206.5,144.5C 211.53,144.099 216.53,144.765 221.5,146.5C 223.157,143.911 223.491,141.244 222.5,138.5C 211.597,135.691 200.597,133.358 189.5,131.5C 189.484,125.565 188.151,120.065 185.5,115C 166.122,108.658 146.289,104.491 126,102.5C 106.808,105.006 87.975,109.173 69.5,115C 66.8898,120.435 64.8898,126.102 63.5,132C 53.0614,133.721 42.7281,135.888 32.5,138.5C 31.5094,141.244 31.8427,143.911 33.5,146.5C 38.4703,144.765 43.4703,144.099 48.5,144.5C 43.2083,149.491 37.875,154.491 32.5,159.5C 25.37,156.52 19.2034,152.187 14,146.5C 13.0181,145.241 12.6848,143.908 13,142.5C 24.8342,131.665 34.8342,119.331 43,105.5C 52.8033,83.2279 63.1366,61.2279 74,39.5C 81.0268,28.6406 89.8601,19.6406 100.5,12.5 Z M 85.5,36.5 C 88.1667,36.5 90.8333,36.5 93.5,36.5C 93.3354,39.5184 93.502,42.5184 94,45.5C 98.9137,48.0398 103.747,50.7064 108.5,53.5C 121.167,38.8333 133.833,38.8333 146.5,53.5C 151.253,50.7064 156.086,48.0398 161,45.5C 161.498,42.5184 161.665,39.5184 161.5,36.5C 164.167,36.5 166.833,36.5 169.5,36.5C 169.5,39.1667 169.5,41.8333 169.5,44.5C 172.167,44.5 174.833,44.5 177.5,44.5C 177.5,47.1667 177.5,49.8333 177.5,52.5C 166.916,51.3759 157.582,54.3759 149.5,61.5C 151.163,66.4477 151.663,71.4477 151,76.5C 159.086,81.1269 167.253,85.6269 175.5,90C 179.486,90.4988 183.486,90.6655 187.5,90.5C 187.5,93.1667 187.5,95.8333 187.5,98.5C 184.833,98.5 182.167,98.5 179.5,98.5C 179.5,101.167 179.5,103.833 179.5,106.5C 176.833,106.5 174.167,106.5 171.5,106.5C 171.82,103.102 171.487,99.7683 170.5,96.5C 163.167,92.5 155.833,88.5 148.5,84.5C 141.459,97.3399 131.126,101.173 117.5,96C 112.977,92.9773 109.31,89.1439 106.5,84.5C 99.1667,88.5 91.8333,92.5 84.5,96.5C 83.513,99.7683 83.1796,103.102 83.5,106.5C 80.8333,106.5 78.1667,106.5 75.5,106.5C 75.5,103.833 75.5,101.167 75.5,98.5C 72.8333,98.5 70.1667,98.5 67.5,98.5C 67.5,95.8333 67.5,93.1667 67.5,90.5C 71.5138,90.6655 75.5138,90.4988 79.5,90C 87.747,85.6269 95.9137,81.1269 104,76.5C 103.337,71.4477 103.837,66.4477 105.5,61.5C 97.4177,54.3759 88.0844,51.3759 77.5,52.5C 77.5,49.8333 77.5,47.1667 77.5,44.5C 80.1667,44.5 82.8333,44.5 85.5,44.5C 85.5,41.8333 85.5,39.1667 85.5,36.5 Z M 115.5,62.5 C 118.167,62.5 120.833,62.5 123.5,62.5C 123.5,65.1667 123.5,67.8333 123.5,70.5C 120.833,70.5 118.167,70.5 115.5,70.5C 115.5,67.8333 115.5,65.1667 115.5,62.5 Z M 131.5,62.5 C 134.167,62.5 136.833,62.5 139.5,62.5C 139.5,65.1667 139.5,67.8333 139.5,70.5C 136.833,70.5 134.167,70.5 131.5,70.5C 131.5,67.8333 131.5,65.1667 131.5,62.5 Z M 119.5,74.5 C 124.833,74.5 130.167,74.5 135.5,74.5C 135.5,77.1667 135.5,79.8333 135.5,82.5C 130.167,82.5 124.833,82.5 119.5,82.5C 119.5,79.8333 119.5,77.1667 119.5,74.5 Z"/></g>
<g><path style="opacity:0.876" fill="#fa4454" d="M 124.5,50.5 C 133.667,50.3344 139.5,54.6678 142,63.5C 144.713,74.0294 141.879,82.5294 133.5,89C 123.136,91.6625 116.303,87.8292 113,77.5C 110.007,65.2462 113.84,56.2462 124.5,50.5 Z M 115.5,62.5 C 115.5,65.1667 115.5,67.8333 115.5,70.5C 118.167,70.5 120.833,70.5 123.5,70.5C 123.5,67.8333 123.5,65.1667 123.5,62.5C 120.833,62.5 118.167,62.5 115.5,62.5 Z M 131.5,62.5 C 131.5,65.1667 131.5,67.8333 131.5,70.5C 134.167,70.5 136.833,70.5 139.5,70.5C 139.5,67.8333 139.5,65.1667 139.5,62.5C 136.833,62.5 134.167,62.5 131.5,62.5 Z M 119.5,74.5 C 119.5,77.1667 119.5,79.8333 119.5,82.5C 124.833,82.5 130.167,82.5 135.5,82.5C 135.5,79.8333 135.5,77.1667 135.5,74.5C 130.167,74.5 124.833,74.5 119.5,74.5 Z"/></g>
<g><path style="opacity:0.921" fill="#fa4454" d="M 125.5,110.5 C 144.393,111.479 162.726,115.145 180.5,121.5C 180.575,124.206 180.908,126.873 181.5,129.5C 163.651,126.258 145.651,124.258 127.5,123.5C 109.349,124.258 91.3489,126.258 73.5,129.5C 73.8333,126.833 74.1667,124.167 74.5,121.5C 91.1457,115.639 108.146,111.973 125.5,110.5 Z"/></g>
<g><path style="opacity:0.922" fill="#fa4454" d="M 120.5,132.5 C 132.321,132.068 143.988,133.068 155.5,135.5C 144.142,143.427 131.642,148.76 118,151.5C 107.487,145.335 96.6533,144.835 85.5,150C 83.5448,150.953 81.8782,152.287 80.5,154C 77.854,154.497 75.1873,154.664 72.5,154.5C 72.5,149.167 72.5,143.833 72.5,138.5C 88.5755,135.991 104.575,133.991 120.5,132.5 Z"/></g>
<g><path style="opacity:0.938" fill="#fa4454" d="M 170.5,136.5 C 174.477,137.259 178.477,137.925 182.5,138.5C 182.791,162.836 180.125,186.836 174.5,210.5C 158.273,207.053 143.939,199.886 131.5,189C 134.49,188.103 137.49,187.269 140.5,186.5C 141.491,183.756 141.157,181.089 139.5,178.5C 131.507,181.107 123.507,181.107 115.5,178.5C 113.843,181.089 113.509,183.756 114.5,186.5C 117.51,187.269 120.51,188.103 123.5,189C 111.061,199.886 96.7274,207.053 80.5,210.5C 77.2991,194.628 74.9658,178.628 73.5,162.5C 75.8333,162.5 78.1667,162.5 80.5,162.5C 83.2098,181.689 93.2098,186.855 110.5,178C 117.14,173.194 120.474,166.694 120.5,158.5C 138.419,153.871 155.085,146.538 170.5,136.5 Z M 166.5,151.5 C 173.774,154.161 174.107,157.328 167.5,161C 165.975,162.009 164.308,162.509 162.5,162.5C 162.5,165.5 162.5,168.5 162.5,171.5C 157.167,171.5 151.833,171.5 146.5,171.5C 146.5,169.5 146.5,167.5 146.5,165.5C 143.833,165.5 141.167,165.5 138.5,165.5C 138.5,162.833 138.5,160.167 138.5,157.5C 144.545,157.572 150.545,157.072 156.5,156C 160.229,155.156 163.563,153.656 166.5,151.5 Z"/></g>
<g><path style="opacity:0.899" fill="#fa4454" d="M 62.5,140.5 C 63.8048,142.397 64.4714,144.731 64.5,147.5C 64.3333,149.833 64.1667,152.167 64,154.5C 54.7091,165.129 44.2091,174.296 32.5,182C 44.487,184.381 55.6537,182.215 66,175.5C 67.1056,179.122 67.4389,182.789 67,186.5C 59.5083,202.653 49.0083,216.486 35.5,228C 41.3836,229.647 47.3836,230.647 53.5,231C 63.1924,231.491 72.859,231.491 82.5,231C 84.8333,233.333 87.1667,235.667 89.5,238C 82.7232,239.988 75.7232,241.155 68.5,241.5C 50.1333,240.661 32.1333,237.661 14.5,232.5C 13.1667,231.833 13.1667,231.167 14.5,230.5C 30.1667,220.833 42.8333,208.167 52.5,192.5C 45.3731,192.892 38.0398,192.392 30.5,191C 24.7555,189.474 20.0888,186.474 16.5,182C 24.4685,175.675 32.4685,169.342 40.5,163C 48.0358,155.632 55.3692,148.132 62.5,140.5 Z"/></g>
<g><path style="opacity:0.899" fill="#fa4454" d="M 190.5,140.5 C 193.394,141.882 195.894,143.882 198,146.5C 209.136,160.141 221.97,171.808 236.5,181.5C 235.057,190.209 230.057,195.709 221.5,198C 218.118,198.176 214.785,198.676 211.5,199.5C 215.669,208.335 221.669,215.669 229.5,221.5C 224.976,230.61 217.642,236.11 207.5,238C 193.481,241.33 179.481,241.33 165.5,238C 167.833,235.667 170.167,233.333 172.5,231C 185.813,231.525 198.813,229.859 211.5,226C 213.116,225.385 214.449,224.385 215.5,223C 208.429,217.03 203.762,209.53 201.5,200.5C 189.315,197.154 184.482,189.154 187,176.5C 189.144,169.363 193.978,165.529 201.5,165C 197.903,161.682 194.403,158.182 191,154.5C 190.501,149.845 190.334,145.179 190.5,140.5 Z M 210.5,173.5 C 215.47,177.325 220.47,181.158 225.5,185C 221.402,188.516 216.736,189.349 211.5,187.5C 212.682,182.756 212.348,178.09 210.5,173.5 Z M 198.5,175.5 C 201.077,176.972 202.41,179.305 202.5,182.5C 202.452,185.329 201.452,187.663 199.5,189.5C 197.109,187.634 196.109,185.134 196.5,182C 196.338,179.498 197.005,177.331 198.5,175.5 Z"/></g>
<g><path style="opacity:0.751" fill="#fa4454" d="M 126.5,198.5 C 130.917,202.414 135.251,206.581 139.5,211C 135.584,210.249 131.584,209.416 127.5,208.5C 123.416,209.416 119.416,210.249 115.5,211C 119.77,207.239 123.437,203.072 126.5,198.5 Z"/></g>
<g><path style="opacity:0.894" fill="#fa4454" d="M 109.5,214.5 C 111.614,215.784 112.614,217.784 112.5,220.5C 116.449,220.018 120.283,219.018 124,217.5C 124.5,217.833 125,218.167 125.5,218.5C 120.312,226.889 114.646,234.889 108.5,242.5C 101.396,237.566 94.7298,232.066 88.5,226C 96.14,223.183 103.14,219.35 109.5,214.5 Z"/></g>
<g><path style="opacity:0.893" fill="#fa4454" d="M 143.5,214.5 C 150.866,218.85 158.532,222.683 166.5,226C 160.27,232.066 153.604,237.566 146.5,242.5C 140.354,234.889 134.688,226.889 129.5,218.5C 130,218.167 130.5,217.833 131,217.5C 134.717,219.018 138.551,220.018 142.5,220.5C 142.833,218.5 143.167,216.5 143.5,214.5 Z"/></g>
</svg>
