<?xml version="1.0" encoding="UTF-8"?>
<!DOCTYPE svg PUBLIC "-//W3C//DTD SVG 1.1//EN" "http://www.w3.org/Graphics/SVG/1.1/DTD/svg11.dtd">
<svg xmlns="http://www.w3.org/2000/svg" version="1.1" width="256px" height="256px" style="shape-rendering:geometricPrecision; text-rendering:geometricPrecision; image-rendering:optimizeQuality; fill-rule:evenodd; clip-rule:evenodd" xmlns:xlink="http://www.w3.org/1999/xlink">
<g><path style="opacity:0.956" fill="#fa4454" d="M 115.5,8.5 C 145.846,5.66689 171.012,15.6669 191,38.5C 219.064,75.1102 228.064,116.11 218,161.5C 214.9,176.84 208.733,190.673 199.5,203C 150.653,219.982 101.987,219.482 53.5,201.5C 34.6182,169.151 28.7849,134.484 36,97.5C 42.4572,64.0907 59.6238,37.924 87.5,19C 96.4668,14.1823 105.8,10.6823 115.5,8.5 Z M 118.5,18.5 C 156.452,16.3363 182.618,32.6696 197,67.5C 206.559,104.523 195.393,133.356 163.5,154C 129.398,169.578 99.2316,164.078 73,137.5C 49.7027,105.086 50.3694,73.0863 75,41.5C 86.9723,28.9319 101.472,21.2652 118.5,18.5 Z M 105.5,59.5 C 115.974,60.1258 119.808,65.4591 117,75.5C 113.562,80.0809 109.062,81.5809 103.5,80C 97.8912,76.7231 96.0578,71.8897 98,65.5C 100.134,62.8474 102.634,60.8474 105.5,59.5 Z M 84.5,166.5 C 101.255,170.714 105.255,180.214 96.5,195C 87.5566,201.579 79.39,200.746 72,192.5C 66.3547,178.884 70.5213,170.217 84.5,166.5 Z M 163.5,167.5 C 178.14,166.972 184.64,173.972 183,188.5C 177.886,198.871 170.052,201.705 159.5,197C 149.843,189.033 149.176,180.367 157.5,171C 159.727,170.059 161.727,168.892 163.5,167.5 Z"/></g>
<g><path style="opacity:0.949" fill="#fa4454" d="M 113.5,37.5 C 118.397,38.9481 123.064,40.9481 127.5,43.5C 126.167,46.5 124.833,49.5 123.5,52.5C 125.043,55.086 126.709,57.586 128.5,60C 132.203,60.5787 135.869,60.412 139.5,59.5C 139.939,64.4035 140.606,69.2368 141.5,74C 137.384,74.3255 133.384,75.1588 129.5,76.5C 127.749,78.9724 126.915,81.639 127,84.5C 127.414,84.9574 127.914,85.2907 128.5,85.5C 131.251,83.7073 134.084,82.0406 137,80.5C 139.25,84.6682 141.75,88.6682 144.5,92.5C 148.409,91.085 152.409,90.085 156.5,89.5C 156.5,84.8333 156.5,80.1667 156.5,75.5C 161.167,75.5 165.833,75.5 170.5,75.5C 170.5,80.1667 170.5,84.8333 170.5,89.5C 175.231,90.3541 179.898,91.1875 184.5,92C 186.226,88.0327 188.56,84.5327 191.5,81.5C 194.722,100.485 190.056,117.152 177.5,131.5C 167.487,122.321 157.987,122.987 149,133.5C 145.54,139.281 145.707,144.948 149.5,150.5C 144.564,153.235 139.231,154.735 133.5,155C 126.387,155.893 119.387,155.393 112.5,153.5C 111.754,152.264 111.421,150.93 111.5,149.5C 106.833,149.5 102.167,149.5 97.5,149.5C 97.5,144.5 97.5,139.5 97.5,134.5C 102.167,134.5 106.833,134.5 111.5,134.5C 112.184,130.429 113.184,126.429 114.5,122.5C 110.537,119.846 106.537,117.18 102.5,114.5C 104.761,110.303 107.261,106.303 110,102.5C 113.986,105.084 118.153,106.917 122.5,108C 125,105.5 127.5,103 130,100.5C 130.52,98.7111 130.187,97.0444 129,95.5C 126.333,97.5 123.667,99.5 121,101.5C 118.5,98.3333 116,95.1667 113.5,92C 110.842,91.9271 108.176,92.2604 105.5,93C 104.064,96.7051 102.231,100.205 100,103.5C 96.2701,101.477 92.4367,99.6441 88.5,98C 88.0426,97.586 87.7093,97.086 87.5,96.5C 94.2483,83.9122 90.5816,78.9122 76.5,81.5C 75.2594,76.5749 74.5927,71.5749 74.5,66.5C 78.1545,66.0578 81.8212,65.7244 85.5,65.5C 85.8954,62.3138 86.8954,59.3138 88.5,56.5C 86.3771,53.7544 84.3771,50.921 82.5,48C 86.2443,45.0447 90.0776,42.2114 94,39.5C 96.3157,41.4704 98.1491,43.8037 99.5,46.5C 107.676,48.7893 112.342,45.7893 113.5,37.5 Z M 105.5,59.5 C 102.634,60.8474 100.134,62.8474 98,65.5C 96.0578,71.8897 97.8912,76.7231 103.5,80C 109.062,81.5809 113.562,80.0809 117,75.5C 119.808,65.4591 115.974,60.1258 105.5,59.5 Z"/></g>
<g><path style="opacity:0.792" fill="#fa4454" d="M 63.5,215.5 C 63.56,214.957 63.8933,214.624 64.5,214.5C 69.5832,215.972 74.5832,217.639 79.5,219.5C 80.9149,223.666 82.2482,227.833 83.5,232C 75.6402,228.198 68.9735,222.698 63.5,215.5 Z"/></g>
<g><path style="opacity:0.77" fill="#fa4454" d="M 187.5,215.5 C 189.355,215.272 190.188,215.939 190,217.5C 185.228,222.874 179.895,227.54 174,231.5C 174.341,227.124 175.174,222.791 176.5,218.5C 180.446,218.118 184.112,217.118 187.5,215.5 Z"/></g>
<g><path style="opacity:0.909" fill="#fa4454" d="M 89.5,220.5 C 96.0918,221.822 102.758,222.489 109.5,222.5C 110.317,229.687 111.317,236.853 112.5,244C 112.167,244.5 111.833,245 111.5,245.5C 105.693,243.898 100.027,241.898 94.5,239.5C 92.0541,233.384 90.3875,227.05 89.5,220.5 Z"/></g>
<g><path style="opacity:0.888" fill="#fa4454" d="M 164.5,220.5 C 165.675,220.281 166.675,220.614 167.5,221.5C 165.69,226.739 164.19,232.072 163,237.5C 158.707,240.765 153.874,242.765 148.5,243.5C 149.578,236.544 150.244,229.544 150.5,222.5C 155.391,222.468 160.057,221.801 164.5,220.5 Z"/></g>
<g><path style="opacity:0.926" fill="#fa4454" d="M 118.5,223.5 C 126.5,223.5 134.5,223.5 142.5,223.5C 141.573,231.176 140.573,238.842 139.5,246.5C 133.167,246.5 126.833,246.5 120.5,246.5C 119.98,238.819 119.313,231.153 118.5,223.5 Z"/></g>
</svg>
