<?xml version="1.0" encoding="UTF-8"?>
<!DOCTYPE svg PUBLIC "-//W3C//DTD SVG 1.1//EN" "http://www.w3.org/Graphics/SVG/1.1/DTD/svg11.dtd">
<svg xmlns="http://www.w3.org/2000/svg" version="1.1" width="256px" height="256px" style="shape-rendering:geometricPrecision; text-rendering:geometricPrecision; image-rendering:optimizeQuality; fill-rule:evenodd; clip-rule:evenodd" xmlns:xlink="http://www.w3.org/1999/xlink">
<g><path style="opacity:0.905" fill="#fa4454" d="M 29.5,205.5 C 32.1311,181.856 34.6311,158.189 37,134.5C 39.2211,107.726 44.8878,81.7257 54,56.5C 72.1832,15.6563 103.35,-0.510402 147.5,8C 168.773,13.0567 184.606,25.2234 195,44.5C 206.349,67.8915 213.349,92.5582 216,118.5C 219.531,147.815 222.531,177.148 225,206.5C 221.333,200.5 217.667,194.5 214,188.5C 211.178,160.772 207.845,133.106 204,105.5C 200.771,81.1344 192.438,58.8011 179,38.5C 158.219,17.095 133.386,10.595 104.5,19C 87.5976,25.2356 75.0976,36.4023 67,52.5C 59.9961,67.5122 54.9961,83.1789 52,99.5C 47.6028,129.074 43.9362,158.741 41,188.5C 37.6387,194.578 33.8053,200.245 29.5,205.5 Z M 114.5,165.5 C 122.99,164.343 131.657,164.176 140.5,165C 136.719,168.224 132.386,170.39 127.5,171.5C 122.755,170.293 118.422,168.293 114.5,165.5 Z M 119.5,180.5 C 124.844,180.334 130.177,180.501 135.5,181C 139.253,182.989 143.253,183.822 147.5,183.5C 147.5,186.167 147.5,188.833 147.5,191.5C 145.833,191.5 144.167,191.5 142.5,191.5C 142.031,195.737 140.864,199.737 139,203.5C 137.607,199.714 135.941,196.048 134,192.5C 129.667,191.167 125.333,191.167 121,192.5C 119.059,196.048 117.393,199.714 116,203.5C 114.136,199.737 112.969,195.737 112.5,191.5C 110.833,191.5 109.167,191.5 107.5,191.5C 107.5,188.833 107.5,186.167 107.5,183.5C 111.982,183.966 115.982,182.966 119.5,180.5 Z"/></g>
<g><path style="opacity:0.911" fill="#fa4454" d="M 94.5,34.5 C 95.1665,39.3489 95.8332,44.3489 96.5,49.5C 100.417,47.2922 104.25,44.9589 108,42.5C 109.558,47.4317 111.058,52.4317 112.5,57.5C 117.385,54.8906 122.385,52.5572 127.5,50.5C 132.615,52.5572 137.615,54.8906 142.5,57.5C 143.942,52.4317 145.442,47.4317 147,42.5C 150.75,44.9589 154.583,47.2922 158.5,49.5C 159.329,44.5329 159.829,39.5329 160,34.5C 167.07,42.3139 173.904,50.3139 180.5,58.5C 180.333,58.8333 180.167,59.1667 180,59.5C 176.842,56.9204 173.508,54.5871 170,52.5C 171.946,57.3957 173.613,62.3957 175,67.5C 170.49,64.6425 165.99,62.6425 161.5,61.5C 164.233,65.9423 166.066,70.6089 167,75.5C 162,72.8333 157,70.1667 152,67.5C 151.667,72.8333 151.333,78.1667 151,83.5C 146,80.8333 141,78.1667 136,75.5C 133.167,80.5 130.333,85.5 127.5,90.5C 124.667,85.5 121.833,80.5 119,75.5C 114,78.1667 109,80.8333 104,83.5C 103.667,78.1667 103.333,72.8333 103,67.5C 98,70.1667 93,72.8333 88,75.5C 88.9336,70.6089 90.7669,65.9423 93.5,61.5C 89.0102,62.6425 84.5102,64.6425 80,67.5C 81.3872,62.3957 83.0538,57.3957 85,52.5C 81.4918,54.5871 78.1584,56.9204 75,59.5C 75.3983,57.3687 76.3983,55.3687 78,53.5C 83.7092,47.2948 89.2092,40.9615 94.5,34.5 Z"/></g>
<g><path style="opacity:0.616" fill="#fa4454" d="M 75.5,119.5 C 96.3529,119.196 96.3529,121.196 75.5,125.5C 75.5,123.5 75.5,121.5 75.5,119.5 Z"/></g>
<g><path style="opacity:0.94" fill="#fa4454" d="M 98.5,119.5 C 117.845,119.167 137.178,119.5 156.5,120.5C 148.97,125.862 141.303,131.029 133.5,136C 135.006,138.333 136.673,140.5 138.5,142.5C 141.167,140.833 143.833,139.167 146.5,137.5C 152.422,144.462 158.922,145.129 166,139.5C 167.434,136.475 167.934,133.475 167.5,130.5C 171.527,131.609 175.193,133.276 178.5,135.5C 176.152,159.396 167.652,180.729 153,199.5C 147.649,205.419 141.483,210.253 134.5,214C 130.928,215.405 127.261,215.738 123.5,215C 112.951,210.791 104.451,203.958 98,194.5C 85.3452,176.201 78.5119,156.034 77.5,134C 80.871,132.932 84.2043,131.765 87.5,130.5C 86.1818,138.139 89.5151,142.473 97.5,143.5C 99.5767,143.308 101.577,142.808 103.5,142C 105.017,140.315 106.684,138.815 108.5,137.5C 111.167,139.167 113.833,140.833 116.5,142.5C 118.327,140.5 119.994,138.333 121.5,136C 113.332,130.968 105.665,125.468 98.5,119.5 Z M 114.5,165.5 C 118.422,168.293 122.755,170.293 127.5,171.5C 132.386,170.39 136.719,168.224 140.5,165C 131.657,164.176 122.99,164.343 114.5,165.5 Z M 119.5,180.5 C 115.982,182.966 111.982,183.966 107.5,183.5C 107.5,186.167 107.5,188.833 107.5,191.5C 109.167,191.5 110.833,191.5 112.5,191.5C 112.969,195.737 114.136,199.737 116,203.5C 117.393,199.714 119.059,196.048 121,192.5C 125.333,191.167 129.667,191.167 134,192.5C 135.941,196.048 137.607,199.714 139,203.5C 140.864,199.737 142.031,195.737 142.5,191.5C 144.167,191.5 145.833,191.5 147.5,191.5C 147.5,188.833 147.5,186.167 147.5,183.5C 143.253,183.822 139.253,182.989 135.5,181C 130.177,180.501 124.844,180.334 119.5,180.5 Z"/></g>
<g><path style="opacity:0.616" fill="#fa4454" d="M 163.5,119.5 C 168.833,119.5 174.167,119.5 179.5,119.5C 179.5,121.5 179.5,123.5 179.5,125.5C 174.547,124.684 169.714,123.35 165,121.5C 163.97,121.164 163.47,120.497 163.5,119.5 Z"/></g>
<g><path style="opacity:0.797" fill="#fa4454" d="M 94.5,128.5 C 101.073,129.862 102.74,133.362 99.5,139C 97.2992,139.825 95.4659,139.325 94,137.5C 93.2642,134.408 93.4309,131.408 94.5,128.5 Z"/></g>
<g><path style="opacity:0.793" fill="#fa4454" d="M 158.5,128.5 C 159.496,128.414 160.329,128.748 161,129.5C 161.667,132.167 161.667,134.833 161,137.5C 156.93,140.686 154.43,139.686 153.5,134.5C 154.465,131.872 156.132,129.872 158.5,128.5 Z"/></g>
<g><path style="opacity:0.948" fill="#fa4454" d="M 56.5,177.5 C 79.2734,199.103 100.44,222.103 120,246.5C 120.688,247.332 120.521,247.998 119.5,248.5C 95.8014,235.46 70.468,230.293 43.5,233C 34.4218,234.236 25.4218,235.57 16.5,237C 31.9496,218.604 45.2829,198.771 56.5,177.5 Z"/></g>
<g><path style="opacity:0.948" fill="#fa4454" d="M 197.5,177.5 C 209.54,198.398 223.206,218.231 238.5,237C 229.578,235.57 220.578,234.236 211.5,233C 184.532,230.293 159.199,235.46 135.5,248.5C 134.479,247.998 134.312,247.332 135,246.5C 154.562,222.434 175.395,199.434 197.5,177.5 Z"/></g>
<g><path style="opacity:0.063" fill="#fa4454" d="M 29.5,205.5 C 28.8333,206.167 28.8333,206.167 29.5,205.5 Z"/></g>
</svg>
