<?xml version="1.0" encoding="UTF-8"?>
<!DOCTYPE svg PUBLIC "-//W3C//DTD SVG 1.1//EN" "http://www.w3.org/Graphics/SVG/1.1/DTD/svg11.dtd">
<svg xmlns="http://www.w3.org/2000/svg" version="1.1" width="256px" height="256px" style="shape-rendering:geometricPrecision; text-rendering:geometricPrecision; image-rendering:optimizeQuality; fill-rule:evenodd; clip-rule:evenodd" xmlns:xlink="http://www.w3.org/1999/xlink">
<g><path style="opacity:0.916" fill="#fa4454" d="M 96.5,13.5 C 99.1873,13.3359 101.854,13.5026 104.5,14C 106.355,15.8551 108.188,17.6884 110,19.5C 119.205,22.7349 128.372,26.0682 137.5,29.5C 139.77,24.5168 141.936,19.5168 144,14.5C 146.443,15.5933 148.943,16.5933 151.5,17.5C 152.205,20.089 152.205,22.7557 151.5,25.5C 178.018,34.4224 204.351,43.9224 230.5,54C 236.167,61 241.833,68 247.5,75C 237.598,77.3832 227.598,78.7165 217.5,79C 191.988,69.3298 166.321,60.1632 140.5,51.5C 140.553,54.0606 139.553,56.0606 137.5,57.5C 134.35,56.7611 131.684,55.2611 129.5,53C 131.171,48.6499 132.838,44.3165 134.5,40C 125.177,35.7799 115.677,31.9466 106,28.5C 95.6587,32.1665 91.3254,28.4999 93,17.5C 94.3756,16.2949 95.5423,14.9616 96.5,13.5 Z M 147.5,34.5 C 167.177,41.5596 186.843,48.7263 206.5,56C 209.857,57.5125 211.857,60.0125 212.5,63.5C 210.533,63.2606 208.699,63.5939 207,64.5C 186.183,56.6715 165.35,48.8382 144.5,41C 145.406,38.7787 146.406,36.6121 147.5,34.5 Z"/></g>
<g><path style="opacity:0.913" fill="#fa4454" d="M 79.5,48.5 C 81.9372,48.7563 84.2706,49.4229 86.5,50.5C 88.5299,53.1388 90.1966,55.9721 91.5,59C 99.596,64.1308 107.429,69.6308 115,75.5C 118.091,70.9863 121.425,66.653 125,62.5C 127.669,64.3404 130.169,66.3404 132.5,68.5C 131.747,70.7534 130.414,72.5867 128.5,74C 152.277,90.1109 175.777,106.611 199,123.5C 202.097,131.526 205.597,139.359 209.5,147C 200.118,147.187 190.785,146.52 181.5,145C 158.579,129.29 135.746,113.457 113,97.5C 111.49,99.2077 109.99,100.874 108.5,102.5C 105.437,100.975 102.77,98.9748 100.5,96.5C 103.623,92.4216 106.623,88.2549 109.5,84C 101.222,78.7219 93.2224,73.0552 85.5,67C 82.9556,65.908 80.2889,65.2414 77.5,65C 73.1392,62.7742 71.6392,59.2742 73,54.5C 74.4361,51.5581 76.6028,49.5581 79.5,48.5 Z M 122.5,82.5 C 140.759,94.7525 158.759,107.419 176.5,120.5C 179.586,125.788 177.919,127.621 171.5,126C 155.11,113.944 138.443,102.277 121.5,91C 120.426,90.2613 119.759,89.2613 119.5,88C 120.632,86.2355 121.632,84.4021 122.5,82.5 Z"/></g>
<g><path style="opacity:0.912" fill="#fa4454" d="M 53.5,80.5 C 60.2054,81.0398 63.7054,84.7065 64,91.5C 69.7632,98.6862 75.7632,105.686 82,112.5C 86,109.167 90,105.833 94,102.5C 96.4062,104.983 98.5729,107.65 100.5,110.5C 98.6841,111.815 97.0175,113.315 95.5,115C 113.333,136.167 131.167,157.333 149,178.5C 151.597,187.731 152.764,197.065 152.5,206.5C 144.462,203.765 136.462,200.932 128.5,198C 110.325,176.328 91.9914,154.828 73.5,133.5C 71.8333,134.833 70.1667,136.167 68.5,137.5C 66.8509,135.35 65.0176,133.35 63,131.5C 62.3333,130.5 62.3333,129.5 63,128.5C 66.6724,125.658 70.1724,122.658 73.5,119.5C 68.0645,111.895 62.0645,104.728 55.5,98C 47.9271,97.0894 45.0938,92.9227 47,85.5C 48.6027,82.9649 50.7694,81.2982 53.5,80.5 Z M 85.5,122.5 C 87.9032,122.393 89.7365,123.393 91,125.5C 102.957,140.46 115.291,155.126 128,169.5C 132.139,180.164 129.806,181.498 121,173.5C 107.978,157.979 95.1443,142.312 82.5,126.5C 83.5244,125.148 84.5244,123.815 85.5,122.5 Z"/></g>
<g><path style="opacity:0.917" fill="#fa4454" d="M 18.5,102.5 C 27.9026,103.293 31.4026,108.293 29,117.5C 32.394,125.288 36.0606,132.955 40,140.5C 44.318,138.508 48.6513,136.508 53,134.5C 55.5418,136.552 57.3752,139.219 58.5,142.5C 56.5,143.833 54.5,145.167 52.5,146.5C 63.7266,171.287 75.2266,195.954 87,220.5C 87.4891,230.276 86.6558,239.943 84.5,249.5C 77.1667,244.5 69.8333,239.5 62.5,234.5C 50.5596,208.956 38.3929,183.622 26,158.5C 22.2109,161.797 19.5442,161.131 18,156.5C 16.8903,154.603 16.7236,152.77 17.5,151C 21.7136,148.726 26.0469,146.726 30.5,145C 26.5382,136.909 22.7049,128.742 19,120.5C 13.4857,117.804 11.4857,113.471 13,107.5C 14.4055,105.256 16.2389,103.59 18.5,102.5 Z M 41.5,150.5 C 42.7498,150.577 43.5831,151.244 44,152.5C 52.7049,171.409 61.5382,190.242 70.5,209C 70.3364,216.82 67.8364,217.654 63,211.5C 54.1667,192.5 45.3333,173.5 36.5,154.5C 38.0147,152.918 39.6814,151.584 41.5,150.5 Z"/></g>
</svg>
