<?xml version="1.0" encoding="UTF-8"?>
<!DOCTYPE svg PUBLIC "-//W3C//DTD SVG 1.1//EN" "http://www.w3.org/Graphics/SVG/1.1/DTD/svg11.dtd">
<svg xmlns="http://www.w3.org/2000/svg" version="1.1" width="256px" height="256px" style="shape-rendering:geometricPrecision; text-rendering:geometricPrecision; image-rendering:optimizeQuality; fill-rule:evenodd; clip-rule:evenodd" xmlns:xlink="http://www.w3.org/1999/xlink">
<g><path style="opacity:0.971" fill="#fa4454" d="M 132.5,9.5 C 163.435,8.14527 189.435,18.6453 210.5,41C 171.387,42.4758 139.22,57.9758 114,87.5C 100.385,105.688 92.7188,126.021 91,148.5C 73.6528,139.32 65.1528,124.82 65.5,105C 66.2781,84.3296 72.1115,65.1629 83,47.5C 89.1919,36.4774 96.3586,26.1441 104.5,16.5C 113.701,13.1997 123.035,10.8663 132.5,9.5 Z"/></g>
<g><path style="opacity:0.067" fill="#fa4454" d="M 87.5,23.5 C 88.8333,24.1667 88.8333,24.1667 87.5,23.5 Z"/></g>
<g><path style="opacity:0.965" fill="#fa4454" d="M 87.5,24.5 C 75.4346,41.6324 66.2679,60.299 60,80.5C 48.7889,126.117 65.9555,153.784 111.5,163.5C 119.874,162.93 127.874,160.93 135.5,157.5C 117.536,178.823 94.5357,191.323 66.5,195C 56.1667,195.667 45.8333,195.667 35.5,195C 34.062,194.781 32.7287,194.281 31.5,193.5C 12.3413,145.449 17.8413,100.449 48,58.5C 58.9453,44.3736 72.112,33.0403 87.5,24.5 Z"/></g>
<g><path style="opacity:0.959" fill="#fa4454" d="M 112.5,106.5 C 129.216,76.6583 154.549,58.4917 188.5,52C 198.121,50.5093 207.788,50.1759 217.5,51C 230.409,69.7925 236.909,90.6258 237,113.5C 203.292,89.5289 166.792,84.3623 127.5,98C 122.148,100.339 117.148,103.172 112.5,106.5 Z"/></g>
<g><path style="opacity:0.949" fill="#fa4454" d="M 159.5,238.5 C 172.466,223.678 183.3,207.345 192,189.5C 200.088,172.136 202.088,154.136 198,135.5C 194.417,124.825 188.251,115.991 179.5,109C 174.277,105.221 168.61,102.221 162.5,100C 190.336,97.6129 214.836,105.446 236,123.5C 233.636,166.732 215.136,201.232 180.5,227C 173.766,231.366 166.766,235.199 159.5,238.5 Z"/></g>
<g><path style="opacity:0.22" fill="#fa4454" d="M 112.5,106.5 C 111.833,107.167 111.833,107.167 112.5,106.5 Z"/></g>
<g><path style="opacity:0.974" fill="#fa4454" d="M 166.5,110.5 C 187.022,122.222 195.189,139.889 191,163.5C 185.853,185.461 176.186,205.127 162,222.5C 155.5,229.667 149,236.833 142.5,244C 98.4551,254.1 63.4551,240.767 37.5,204C 80.6628,207.286 116.496,192.786 145,160.5C 152.868,150.104 159.202,138.771 164,126.5C 165.962,121.344 166.795,116.011 166.5,110.5 Z"/></g>
<g><path style="opacity:0.94" fill="#fa4454" d="M 122.5,112.5 C 138.309,110.813 145.809,117.813 145,133.5C 139.729,145.148 131.229,148.314 119.5,143C 110.855,136.153 109.355,127.986 115,118.5C 117.114,115.879 119.614,113.879 122.5,112.5 Z"/></g>
<g><path style="opacity:0.263" fill="#fa4454" d="M 135.5,156.5 C 136.833,157.167 136.833,157.167 135.5,156.5 Z"/></g>
<g><path style="opacity:0.078" fill="#fa4454" d="M 159.5,238.5 C 158.833,239.167 158.833,239.167 159.5,238.5 Z"/></g>
</svg>
