<?xml version="1.0" encoding="UTF-8"?>
<!DOCTYPE svg PUBLIC "-//W3C//DTD SVG 1.1//EN" "http://www.w3.org/Graphics/SVG/1.1/DTD/svg11.dtd">
<svg xmlns="http://www.w3.org/2000/svg" version="1.1" width="256px" height="256px" style="shape-rendering:geometricPrecision; text-rendering:geometricPrecision; image-rendering:optimizeQuality; fill-rule:evenodd; clip-rule:evenodd" xmlns:xlink="http://www.w3.org/1999/xlink">
<g><path style="opacity:0.972" fill="#fa4454" d="M 146.5,9.5 C 163.456,7.87483 173.956,15.2082 178,31.5C 179.168,49.0116 172.335,62.5116 157.5,72C 181.65,72.1577 197.483,60.6577 205,37.5C 216.049,23.7383 227.716,23.0716 240,35.5C 244.527,45.1283 244.527,54.7949 240,64.5C 233.541,78.9406 223.707,90.4406 210.5,99C 197.617,105.441 184.284,110.774 170.5,115C 163.35,120.783 158.85,128.283 157,137.5C 151.872,157.5 154.205,176.5 164,194.5C 168.367,199.258 173.2,203.425 178.5,207C 187.034,213.61 190.2,222.11 188,232.5C 184.381,240.447 178.214,244.947 169.5,246C 154.402,247.864 141.569,243.364 131,232.5C 129.414,230.33 128.08,227.996 127,225.5C 122.729,213.083 119.396,200.416 117,187.5C 111.343,171.584 101.176,168.084 86.5,177C 74.9485,184.049 67.9485,194.215 65.5,207.5C 67.7865,213.979 69.1198,220.645 69.5,227.5C 69.5926,237.244 64.9259,243.41 55.5,246C 38.7774,248.393 27.944,241.56 23,225.5C 19.4242,207.066 22.7576,190.066 33,174.5C 40.5667,166.263 48.7334,158.763 57.5,152C 68.0242,143.827 74.8575,133.327 78,120.5C 80.2166,105.813 75.7166,93.6468 64.5,84C 52.1891,74.1785 39.5224,64.8452 26.5,56C 15.5574,48.1923 13.0574,38.359 19,26.5C 28.6849,16.9068 39.1849,16.0735 50.5,24C 68.9597,37.9862 88.7931,49.8195 110,59.5C 108.501,48.332 110.834,37.9987 117,28.5C 124.63,18.4527 134.464,12.1193 146.5,9.5 Z M 102.5,75.5 C 114.311,74.1488 121.811,79.1488 125,90.5C 136.152,81.7864 145.485,83.4531 153,95.5C 155.101,107.13 150.935,115.63 140.5,121C 131.833,125 123.167,129 114.5,133C 112.91,134.046 111.41,135.213 110,136.5C 109.286,133.405 108.286,130.405 107,127.5C 99.7628,116.864 94.5961,105.364 91.5,93C 92.2048,85.1618 95.8714,79.3285 102.5,75.5 Z"/></g>
</svg>
