<?xml version="1.0" encoding="UTF-8"?>
<!DOCTYPE svg PUBLIC "-//W3C//DTD SVG 1.1//EN" "http://www.w3.org/Graphics/SVG/1.1/DTD/svg11.dtd">
<svg xmlns="http://www.w3.org/2000/svg" version="1.1" width="256px" height="256px" style="shape-rendering:geometricPrecision; text-rendering:geometricPrecision; image-rendering:optimizeQuality; fill-rule:evenodd; clip-rule:evenodd" xmlns:xlink="http://www.w3.org/1999/xlink">
<g><path style="opacity:0.971" fill="#fa4454" d="M 129.5,9.5 C 170.088,8.37715 201.922,24.3771 225,57.5C 231.034,66.683 233.034,76.683 231,87.5C 203.347,135.468 175.68,183.468 148,231.5C 144.097,236.868 138.93,240.368 132.5,242C 90.3039,245.819 57.1372,230.319 33,195.5C 24.5232,181.778 24.5232,168.112 33,154.5C 58.8388,110.827 84.1721,66.8265 109,22.5C 114.33,15.7541 121.163,11.4208 129.5,9.5 Z M 154.5,19.5 C 162.038,20.0484 167.371,23.7151 170.5,30.5C 168.729,34.3309 165.729,35.4976 161.5,34C 154.939,32.1282 151.439,27.9616 151,21.5C 152.302,20.9152 153.469,20.2485 154.5,19.5 Z M 124.5,23.5 C 132.03,23.0109 137.53,26.0109 141,32.5C 142.052,36.2928 140.552,38.2928 136.5,38.5C 132.523,37.6766 128.857,36.1766 125.5,34C 122.066,30.7017 121.733,27.2017 124.5,23.5 Z M 190.5,41.5 C 199.064,41.1177 205.064,44.7844 208.5,52.5C 206.729,56.3309 203.729,57.4976 199.5,56C 194.792,54.6218 191.292,51.7885 189,47.5C 188.252,45.1599 188.752,43.1599 190.5,41.5 Z M 164.5,46.5 C 171.664,46.498 177.164,49.498 181,55.5C 182.073,59.0951 180.739,61.0951 177,61.5C 169.905,60.722 164.738,57.222 161.5,51C 162.386,49.3853 163.386,47.8853 164.5,46.5 Z M 106.5,47.5 C 107.376,47.3691 108.043,47.7025 108.5,48.5C 110.47,54.2941 113.47,59.4608 117.5,64C 110.792,75.2501 103.959,86.4168 97,97.5C 92.0209,90.5456 90.3542,82.8789 92,74.5C 96.8584,65.4461 101.692,56.4461 106.5,47.5 Z M 135.5,51.5 C 141.429,51.6391 146.263,53.9724 150,58.5C 152.411,65.4254 149.911,67.9254 142.5,66C 137.343,64.2629 133.676,60.9295 131.5,56C 132.357,53.9812 133.691,52.4812 135.5,51.5 Z M 203.5,69.5 C 209.583,69.1243 214.749,71.1243 219,75.5C 222.888,80.0658 221.888,83.0658 216,84.5C 209.823,83.7507 205.157,80.7507 202,75.5C 201.252,73.1599 201.752,71.1599 203.5,69.5 Z M 172.5,73.5 C 179.453,73.4155 184.953,76.0822 189,81.5C 190.416,85.508 189.082,87.8413 185,88.5C 177.905,87.722 172.738,84.222 169.5,78C 170.386,76.3853 171.386,74.8853 172.5,73.5 Z M 136.5,84.5 C 139.516,85.3431 142.183,86.8431 144.5,89C 137.288,100.588 130.454,112.421 124,124.5C 121.697,122.607 119.53,120.607 117.5,118.5C 123.889,107.133 130.223,95.7992 136.5,84.5 Z M 208.5,105.5 C 203.851,114.799 198.684,123.799 193,132.5C 190.331,135.164 187.164,136.998 183.5,138C 165.558,141.178 148.891,138.011 133.5,128.5C 140.094,116.972 146.927,105.639 154,94.5C 171.134,103.493 189.301,107.16 208.5,105.5 Z"/></g>
</svg>
