<?xml version="1.0" encoding="UTF-8"?>
<!DOCTYPE svg PUBLIC "-//W3C//DTD SVG 1.1//EN" "http://www.w3.org/Graphics/SVG/1.1/DTD/svg11.dtd">
<svg xmlns="http://www.w3.org/2000/svg" version="1.1" width="256px" height="256px" style="shape-rendering:geometricPrecision; text-rendering:geometricPrecision; image-rendering:optimizeQuality; fill-rule:evenodd; clip-rule:evenodd" xmlns:xlink="http://www.w3.org/1999/xlink">
<g><path style="opacity:0.968" fill="#fa4454" d="M 117.5,9.5 C 123.853,8.90112 129.853,10.0678 135.5,13C 166.336,31.2525 197.336,49.2525 228.5,67C 237.833,76.4676 239,86.9676 232,98.5C 205.414,144.003 179.081,189.67 153,235.5C 144.182,248.162 133.015,250.662 119.5,243C 89.5,225.667 59.5,208.333 29.5,191C 18.105,181.233 16.605,170.066 25,157.5C 51.586,111.997 77.9193,66.33 104,20.5C 107.842,15.8053 112.342,12.1386 117.5,9.5 Z M 124.5,24.5 C 134.292,24.793 138.458,29.793 137,39.5C 135.667,42.1667 133.667,44.1667 131,45.5C 130.525,51.8422 130.025,58.1755 129.5,64.5C 126.833,64.5 124.167,64.5 121.5,64.5C 121.559,57.7972 121.726,51.1305 122,44.5C 116.333,48.1667 110.667,51.8333 105,55.5C 103.5,53.1667 102,50.8333 100.5,48.5C 105.366,45.1358 110.366,41.9691 115.5,39C 115.908,32.4509 118.908,27.6175 124.5,24.5 Z M 161.5,69.5 C 162.327,74.6509 162.827,79.9842 163,85.5C 168.815,101.259 172.981,117.426 175.5,134C 175.232,146.205 170.232,155.872 160.5,163C 143.895,170.242 131.062,166.076 122,150.5C 120.85,159.791 120.184,169.124 120,178.5C 109.751,172.626 99.5843,166.626 89.5,160.5C 97.1667,155.333 104.833,150.167 112.5,145C 88.9024,143.585 79.4024,131.418 84,108.5C 90.3268,95.8571 100.493,88.0237 114.5,85C 125.138,82.539 135.805,80.2057 146.5,78C 151.855,75.6595 156.855,72.8262 161.5,69.5 Z M 126.5,192.5 C 129.167,192.833 131.833,193.167 134.5,193.5C 134.305,200.189 134.138,206.856 134,213.5C 139.667,209.833 145.333,206.167 151,202.5C 152.377,204.754 153.877,206.92 155.5,209C 149.913,212.71 144.413,216.543 139,220.5C 138.858,228.478 134.858,232.811 127,233.5C 118.569,230.473 116.235,224.806 120,216.5C 121.378,214.787 123.045,213.453 125,212.5C 125.526,205.829 126.026,199.163 126.5,192.5 Z"/></g>
<g><path style="opacity:0.913" fill="#fa4454" d="M 153.5,83.5 C 154.043,83.56 154.376,83.8933 154.5,84.5C 152.746,96.1131 151.246,107.78 150,119.5C 147.611,117.05 144.778,115.883 141.5,116C 139.041,119.75 136.708,123.583 134.5,127.5C 140.445,139.137 149.112,141.637 160.5,135C 162.727,132.436 164.561,129.603 166,126.5C 168.599,137.698 165.765,147.198 157.5,155C 144.755,161.418 135.255,158.252 129,145.5C 127.974,140.215 127.307,134.882 127,129.5C 115.244,139.151 103.911,138.817 93,128.5C 87.9738,111.852 93.8071,101.018 110.5,96C 102.838,107.348 105.171,116.015 117.5,122C 120.554,122.821 123.554,122.655 126.5,121.5C 128.5,117.833 130.5,114.167 132.5,110.5C 130.569,108.196 128.236,106.362 125.5,105C 135.082,98.0554 144.416,90.8888 153.5,83.5 Z"/></g>
</svg>
