<?xml version="1.0" encoding="UTF-8"?>
<!DOCTYPE svg PUBLIC "-//W3C//DTD SVG 1.1//EN" "http://www.w3.org/Graphics/SVG/1.1/DTD/svg11.dtd">
<svg xmlns="http://www.w3.org/2000/svg" version="1.1" width="256px" height="256px" style="shape-rendering:geometricPrecision; text-rendering:geometricPrecision; image-rendering:optimizeQuality; fill-rule:evenodd; clip-rule:evenodd" xmlns:xlink="http://www.w3.org/1999/xlink">
<g><path style="opacity:0.981" fill="#fa4454" d="M 121.5,9.5 C 171.356,8.21558 203.856,31.2156 219,78.5C 224.856,98.8924 224.856,119.226 219,139.5C 207.868,162.966 193.201,183.966 175,202.5C 160.219,218.453 144.386,233.12 127.5,246.5C 100.111,224.279 75.6114,199.279 54,171.5C 47.1662,161.325 41.1662,150.659 36,139.5C 26.859,104.872 32.5256,72.8724 53,43.5C 70.9372,22.1145 93.7705,10.7811 121.5,9.5 Z M 126.5,48.5 C 127.922,48.7086 129.255,49.2086 130.5,50C 150.5,70.6667 150.5,91.3333 130.5,112C 129.391,112.638 128.225,113.138 127,113.5C 109.244,99.3917 105.244,82.0584 115,61.5C 117.984,56.3529 121.818,52.0196 126.5,48.5 Z M 62.5,101.5 C 87.2238,101.38 101.89,113.547 106.5,138C 90.5365,145.246 75.5365,143.579 61.5,133C 54.4876,125.299 50.1542,116.299 48.5,106C 53.1271,103.956 57.7938,102.456 62.5,101.5 Z M 181.5,101.5 C 190.689,100.808 199.356,102.474 207.5,106.5C 202.319,132.178 186.653,144.011 160.5,142C 156.581,141.25 152.915,139.917 149.5,138C 152.64,119.038 163.307,106.871 181.5,101.5 Z"/></g>
<g><path style="opacity:0.93" fill="#fa4454" d="M 122.5,67.5 C 131.498,65.7472 137.665,69.0805 141,77.5C 142.445,87.895 137.945,93.895 127.5,95.5C 115.625,93.0821 111.458,86.0821 115,74.5C 117.396,71.9334 119.896,69.6 122.5,67.5 Z"/></g>
<g><path style="opacity:0.933" fill="#fa4454" d="M 72.5,108.5 C 79.9701,106.823 85.8034,109.157 90,115.5C 92.4912,133.001 85.3246,138.835 68.5,133C 60.8124,123.328 62.1457,115.162 72.5,108.5 Z"/></g>
<g><path style="opacity:0.932" fill="#fa4454" d="M 174.5,108.5 C 187.62,107.453 193.453,113.453 192,126.5C 188.351,134.505 182.184,137.339 173.5,135C 165.702,130.615 163.202,124.115 166,115.5C 168.464,112.519 171.297,110.186 174.5,108.5 Z"/></g>
</svg>
