<?xml version="1.0" encoding="UTF-8"?>
<!DOCTYPE svg PUBLIC "-//W3C//DTD SVG 1.1//EN" "http://www.w3.org/Graphics/SVG/1.1/DTD/svg11.dtd">
<svg xmlns="http://www.w3.org/2000/svg" version="1.1" width="256px" height="256px" style="shape-rendering:geometricPrecision; text-rendering:geometricPrecision; image-rendering:optimizeQuality; fill-rule:evenodd; clip-rule:evenodd" xmlns:xlink="http://www.w3.org/1999/xlink">
<g><path style="opacity:0.925" fill="#fa4454" d="M 199.5,31.5 C 200.239,31.369 200.906,31.5357 201.5,32C 200.286,34.3506 199.452,36.8506 199,39.5C 198.244,47.6917 198.41,55.8584 199.5,64C 199.379,72.4013 196.212,79.2346 190,84.5C 184.641,81.7346 179.141,79.4012 173.5,77.5C 176.972,66.9227 181.139,56.5894 186,46.5C 189.654,40.6823 194.154,35.6823 199.5,31.5 Z"/></g>
<g><path style="opacity:0.918" fill="#fa4454" d="M 45.5,38.5 C 55.0369,49.8647 66.0369,59.698 78.5,68C 87.9578,76.4132 93.6244,86.9132 95.5,99.5C 93.6511,103.198 91.8178,106.864 90,110.5C 87.9164,106.664 85.583,102.997 83,99.5C 72.3032,89.1374 61.9699,78.4707 52,67.5C 46.0022,58.6726 43.8356,49.006 45.5,38.5 Z"/></g>
<g><path style="opacity:0.975" fill="#fa4454" d="M 93.5,72.5 C 121.192,71.8372 147.859,76.6705 173.5,87C 187.009,93.1709 198.843,101.671 209,112.5C 226.974,138.113 221.807,157.28 193.5,170C 174.215,175.731 154.882,175.731 135.5,170C 108.375,162.879 96.2088,145.379 99,117.5C 99.8058,112.106 101.306,106.94 103.5,102C 101.857,91.5707 98.5237,81.7374 93.5,72.5 Z M 201.5,124.5 C 209.975,125.379 211.642,129.212 206.5,136C 200.657,139.958 196.323,138.791 193.5,132.5C 194.548,128.119 197.214,125.452 201.5,124.5 Z M 133.5,128.5 C 140.428,128.283 144.761,131.45 146.5,138C 146.385,139.895 145.718,141.562 144.5,143C 134.842,146.597 129.342,143.43 128,133.5C 129.352,131.251 131.185,129.584 133.5,128.5 Z"/></g>
<g><path style="opacity:0.903" fill="#fa4454" d="M 241.5,74.5 C 242.376,74.3691 243.043,74.7025 243.5,75.5C 240.897,82.2734 236.897,88.1067 231.5,93C 225.697,96.6376 220.03,100.471 214.5,104.5C 209.649,99.8149 204.649,95.3149 199.5,91C 201.957,87.9416 204.957,85.6083 208.5,84C 216.4,82.1425 224.4,80.8092 232.5,80C 236.181,79.1278 239.181,77.2945 241.5,74.5 Z"/></g>
<g><path style="opacity:0.861" fill="#fa4454" d="M 49.5,76.5 C 57.495,83.4802 64.495,90.8136 70.5,98.5C 55.5143,90.6284 39.5143,87.1284 22.5,88C 20.221,87.5272 18.221,86.5272 16.5,85C 27.4918,81.6696 38.4918,78.8362 49.5,76.5 Z"/></g>
<g><path style="opacity:0.931" fill="#fa4454" d="M 14.5,94.5 C 14.7352,93.9033 15.2352,93.5699 16,93.5C 19.3831,94.814 22.8831,95.6473 26.5,96C 44.8826,94.6736 61.2159,99.6736 75.5,111C 79.2386,114.617 83.0719,118.117 87,121.5C 87.0799,125.19 86.5799,128.856 85.5,132.5C 82.9952,130.747 80.3286,129.247 77.5,128C 65.2929,124.198 52.9596,120.865 40.5,118C 28.1406,114.136 19.474,106.302 14.5,94.5 Z"/></g>
<g><path style="opacity:0.888" fill="#fa4454" d="M 242.5,104.5 C 243.834,114.032 240.501,121.865 232.5,128C 230.975,129.009 229.308,129.509 227.5,129.5C 226.235,123.536 223.902,118.036 220.5,113C 225.5,112 230.5,111 235.5,110C 238.595,109.065 240.929,107.231 242.5,104.5 Z"/></g>
<g><path style="opacity:0.924" fill="#fa4454" d="M 13.5,107.5 C 19.1154,115.156 26.4488,120.656 35.5,124C 44.8949,126.68 54.2283,129.347 63.5,132C 58.7436,133.022 54.077,134.356 49.5,136C 39.2035,141.932 28.2035,145.765 16.5,147.5C 15.2638,146.754 13.9305,146.421 12.5,146.5C 12.5837,133.492 12.917,120.492 13.5,107.5 Z"/></g>
<g><path style="opacity:0.927" fill="#fa4454" d="M 62.5,139.5 C 70.9347,138.776 78.9347,140.276 86.5,144C 90.1523,149.412 88.8189,152.745 82.5,154C 64.6584,160.263 46.3251,162.597 27.5,161C 22.0788,159.973 17.0788,157.973 12.5,155C 17.5465,154.662 22.5465,153.995 27.5,153C 39.2489,148.368 50.9156,143.868 62.5,139.5 Z"/></g>
<g><path style="opacity:0.966" fill="#fa4454" d="M 61.5,166.5 C 71.7005,166.692 81.7005,168.192 91.5,171C 96.3353,172.914 100.669,175.581 104.5,179C 84.7912,183.708 71.7912,195.708 65.5,215C 68.4363,219.608 71.7697,223.941 75.5,228C 68.5,228.333 61.5,228.667 54.5,229C 47.8333,233.667 41.1667,238.333 34.5,243C 33.552,243.483 32.552,243.649 31.5,243.5C 30.7573,237.454 29.7573,231.454 28.5,225.5C 22.7783,225.978 17.1116,225.978 11.5,225.5C 15.0544,221.058 17.5544,216.058 19,210.5C 20.4646,201.189 21.7979,191.856 23,182.5C 24.215,177.066 26.715,172.399 30.5,168.5C 41.0695,169.944 51.4029,169.277 61.5,166.5 Z"/></g>
<g><path style="opacity:0.94" fill="#fa4454" d="M 206.5,176.5 C 209.808,175.974 211.974,177.307 213,180.5C 216.667,188.5 220.333,196.5 224,204.5C 228.141,210.311 233.641,214.144 240.5,216C 239.122,217.713 237.455,219.047 235.5,220C 231.789,220.175 228.122,220.675 224.5,221.5C 225.219,224.313 225.886,227.146 226.5,230C 226.167,230.5 225.833,231 225.5,231.5C 215.5,226.5 205.5,221.5 195.5,216.5C 188.859,217.796 182.193,217.796 175.5,216.5C 178.5,212.5 181.5,208.5 184.5,204.5C 177.997,200.414 171.33,196.581 164.5,193C 178.526,187.384 192.526,181.884 206.5,176.5 Z"/></g>
</svg>
