<?xml version="1.0" encoding="UTF-8"?>
<!DOCTYPE svg PUBLIC "-//W3C//DTD SVG 1.1//EN" "http://www.w3.org/Graphics/SVG/1.1/DTD/svg11.dtd">
<svg xmlns="http://www.w3.org/2000/svg" version="1.1" width="256px" height="256px" style="shape-rendering:geometricPrecision; text-rendering:geometricPrecision; image-rendering:optimizeQuality; fill-rule:evenodd; clip-rule:evenodd" xmlns:xlink="http://www.w3.org/1999/xlink">
<g><path style="opacity:0.963" fill="#fa4454" d="M 230.5,17.5 C 240.836,32.6403 246.503,49.4736 247.5,68C 245.33,94.3344 231.33,110.334 205.5,116C 186.943,119.877 169.276,117.544 152.5,109C 134.959,95.4139 128.459,77.5806 133,55.5C 135.355,42.4327 139.688,30.0994 146,18.5C 150.511,26.8655 155.511,34.8655 161,42.5C 179.018,37.4414 197.018,37.4414 215,42.5C 220.787,34.5476 225.953,26.2143 230.5,17.5 Z M 158.5,68.5 C 170.458,68.7869 176.125,74.7869 175.5,86.5C 161.348,93.8977 152.015,89.8977 147.5,74.5C 147.833,73.8333 148.167,73.1667 148.5,72.5C 151.932,71.1068 155.265,69.7734 158.5,68.5 Z M 214.5,68.5 C 220.355,68.8405 225.688,70.6739 230.5,74C 225.624,90.0653 215.624,94.0653 200.5,86C 201.537,77.0157 206.204,71.1824 214.5,68.5 Z"/></g>
<g><path style="opacity:0.979" fill="#fa4454" d="M 59.5,93.5 C 80.3864,92.0724 99.7198,96.9057 117.5,108C 123.972,112.306 130.306,116.806 136.5,121.5C 139.595,119.065 142.928,117.065 146.5,115.5C 170.701,128.398 195.535,129.731 221,119.5C 226.403,135.804 227.736,152.471 225,169.5C 224.086,176.827 222.586,183.994 220.5,191C 162.167,191.333 103.833,191.667 45.5,192C 58.9776,206.605 75.6443,212.271 95.5,209C 107.883,207.707 120.216,206.041 132.5,204C 163.377,198.796 190.377,206.463 213.5,227C 218.153,230.788 219.653,235.622 218,241.5C 214.522,245.662 210.356,246.496 205.5,244C 190.793,227.425 172.293,219.591 150,220.5C 132.754,221.552 115.587,223.385 98.5,226C 68.7315,230.974 44.8982,221.474 27,197.5C 18.6206,186.072 12.9539,173.406 10,159.5C 6.67795,132.978 16.5113,113.145 39.5,100C 45.9916,96.8906 52.6582,94.724 59.5,93.5 Z"/></g>
</svg>
