<?xml version="1.0" encoding="UTF-8"?>
<!DOCTYPE svg PUBLIC "-//W3C//DTD SVG 1.1//EN" "http://www.w3.org/Graphics/SVG/1.1/DTD/svg11.dtd">
<svg xmlns="http://www.w3.org/2000/svg" version="1.1" width="256px" height="256px" style="shape-rendering:geometricPrecision; text-rendering:geometricPrecision; image-rendering:optimizeQuality; fill-rule:evenodd; clip-rule:evenodd" xmlns:xlink="http://www.w3.org/1999/xlink">
<g><path style="opacity:0.941" fill="#fa4454" d="M 57.5,76.5 C 86.9897,75.3449 107.323,88.3449 118.5,115.5C 123.167,114.167 127.833,114.167 132.5,115.5C 146.872,82.5291 171.539,70.6958 206.5,80C 237.406,95.7091 247.906,120.209 238,153.5C 228.17,175.148 211.337,186.815 187.5,188.5C 158.197,186.701 139.363,171.701 131,143.5C 127.333,140.833 123.667,140.833 120,143.5C 107.736,179.882 82.9029,193.715 45.5,185C 20.0203,173.885 7.85359,154.385 9,126.5C 12.1142,104.381 23.9475,88.8809 44.5,80C 48.9191,78.6476 53.2524,77.481 57.5,76.5 Z M 60.5,86.5 C 90.9223,87.6867 107.589,103.353 110.5,133.5C 110.098,141.871 107.598,149.538 103,156.5C 92.1068,146.727 79.2734,142.061 64.5,142.5C 49.7082,141.982 37.5416,147.315 28,158.5C 19.1439,145.562 17.1439,131.562 22,116.5C 22.3333,115.833 22.6667,115.167 23,114.5C 26.8931,118.146 31.5598,119.812 37,119.5C 44.3944,119.638 50.0611,116.638 54,110.5C 54.8617,105.753 53.3617,101.92 49.5,99C 46.0072,97.2094 42.3405,95.876 38.5,95C 45.3881,90.7112 52.7214,87.8778 60.5,86.5 Z M 182.5,86.5 C 212.658,87.4921 228.991,102.992 231.5,133C 231.483,141.547 229.15,149.381 224.5,156.5C 213.59,146.805 200.757,142.139 186,142.5C 170.569,141.719 158.236,147.386 149,159.5C 140.019,145.275 138.352,130.275 144,114.5C 151.966,120.134 160.466,120.967 169.5,117C 177.047,111.317 177.38,105.317 170.5,99C 167.283,97.3631 163.95,96.0298 160.5,95C 167.185,90.1447 174.518,87.3114 182.5,86.5 Z M 122.5,124.5 C 128.529,123.165 131.196,125.498 130.5,131.5C 127.167,131.5 123.833,131.5 120.5,131.5C 120.185,128.789 120.852,126.456 122.5,124.5 Z"/></g>
</svg>
