<?xml version="1.0" encoding="UTF-8"?>
<!DOCTYPE svg PUBLIC "-//W3C//DTD SVG 1.1//EN" "http://www.w3.org/Graphics/SVG/1.1/DTD/svg11.dtd">
<svg xmlns="http://www.w3.org/2000/svg" version="1.1" width="256px" height="256px" style="shape-rendering:geometricPrecision; text-rendering:geometricPrecision; image-rendering:optimizeQuality; fill-rule:evenodd; clip-rule:evenodd" xmlns:xlink="http://www.w3.org/1999/xlink">
<g><path style="opacity:0.955" fill="#fa4454" d="M 14.5,13.5 C 34.5689,35.74 55.2355,57.5734 76.5,79C 87.2008,89.3693 98.2008,99.3693 109.5,109C 115.359,113.692 121.359,118.192 127.5,122.5C 166.374,92.4616 201.541,58.4616 233,20.5C 235.333,18.1667 237.667,15.8333 240,13.5C 236.73,29.2984 231.063,44.2984 223,58.5C 200.653,98.1874 171.153,131.687 134.5,159C 129.833,162.333 125.167,162.333 120.5,159C 77.3392,126.83 44.5059,86.3295 22,37.5C 18.7905,29.7057 16.2905,21.7057 14.5,13.5 Z"/></g>
<g><path style="opacity:0.954" fill="#fa4454" d="M 114.5,42.5 C 117.5,42.5 120.5,42.5 123.5,42.5C 123.667,64.8358 123.5,87.1692 123,109.5C 105.9,95.0699 89.3999,79.9032 73.5,64C 84.7262,52.0547 98.3928,44.8881 114.5,42.5 Z"/></g>
<g><path style="opacity:0.954" fill="#fa4454" d="M 131.5,42.5 C 151.372,42.3958 168.038,49.5624 181.5,64C 165.6,79.9032 149.1,95.0699 132,109.5C 131.5,87.1692 131.333,64.8358 131.5,42.5 Z"/></g>
<g><path style="opacity:0.9" fill="#fa4454" d="M 53.5,106.5 C 55.7402,107.568 57.5736,109.234 59,111.5C 58.4883,135.166 65.4883,156.166 80,174.5C 83.7835,177.316 87.2835,180.483 90.5,184C 86.0971,190.303 82.9305,197.137 81,204.5C 64.9295,180.121 55.0961,153.454 51.5,124.5C 51.8397,118.451 52.5064,112.451 53.5,106.5 Z"/></g>
<g><path style="opacity:0.9" fill="#fa4454" d="M 199.5,106.5 C 200.931,106.881 201.764,107.881 202,109.5C 204.322,121.989 203.656,134.322 200,146.5C 194.049,167.067 185.382,186.401 174,204.5C 172.07,197.137 168.903,190.303 164.5,184C 179.716,172.081 189.216,156.581 193,137.5C 194.493,128.891 195.493,120.224 196,111.5C 197.669,110.154 198.836,108.487 199.5,106.5 Z"/></g>
<g><path style="opacity:0.907" fill="#fa4454" d="M 68.5,123.5 C 77.7984,132.298 86.965,141.298 96,150.5C 95.2055,157.187 96.7055,163.353 100.5,169C 101.833,169.667 103.167,169.667 104.5,169C 106.291,166.586 107.957,164.086 109.5,161.5C 112.672,163.252 115.672,165.252 118.5,167.5C 115.641,172.526 111.641,176.359 106.5,179C 101.632,180.186 97.2984,179.186 93.5,176C 77.2492,162.33 68.9159,144.83 68.5,123.5 Z"/></g>
<g><path style="opacity:0.907" fill="#fa4454" d="M 185.5,123.5 C 186.074,147.181 176.407,165.681 156.5,179C 152.218,179.965 148.218,179.298 144.5,177C 141.269,174.273 138.603,171.106 136.5,167.5C 139.328,165.252 142.328,163.252 145.5,161.5C 147.043,164.086 148.709,166.586 150.5,169C 155.034,169.481 157.534,167.314 158,162.5C 159.042,158.452 159.376,154.452 159,150.5C 168.036,141.632 176.869,132.632 185.5,123.5 Z"/></g>
<g><path style="opacity:0.912" fill="#fa4454" d="M 42.5,136.5 C 43.4972,136.47 44.1639,136.97 44.5,138C 48.7423,157.394 55.7423,175.728 65.5,193C 61.8333,193.667 58.1667,193.667 54.5,193C 41.4709,179.443 35.3042,163.277 36,144.5C 37.3046,141.039 39.4713,138.372 42.5,136.5 Z"/></g>
<g><path style="opacity:0.911" fill="#fa4454" d="M 210.5,136.5 C 214.754,137.585 217.587,140.252 219,144.5C 219.696,163.277 213.529,179.443 200.5,193C 196.833,193.667 193.167,193.667 189.5,193C 199.568,175.296 206.568,156.462 210.5,136.5 Z"/></g>
<g><path style="opacity:0.948" fill="#fa4454" d="M 125.5,170.5 C 126.978,170.238 128.311,170.571 129.5,171.5C 133.742,178.242 139.408,183.409 146.5,187C 150.167,187.333 153.833,187.667 157.5,188C 163.821,196.116 166.321,205.283 165,215.5C 160.953,222.885 155.453,229.052 148.5,234C 135.931,243.16 122.931,243.826 109.5,236C 101.26,230.761 94.7596,223.928 90,215.5C 88.7335,205.566 91.0668,196.566 97,188.5C 110.427,188.704 119.927,182.704 125.5,170.5 Z M 119.5,193.5 C 124.833,193.5 130.167,193.5 135.5,193.5C 135.5,196.5 135.5,199.5 135.5,202.5C 130.167,202.5 124.833,202.5 119.5,202.5C 119.5,199.5 119.5,196.5 119.5,193.5 Z M 148.5,207.5 C 150.624,209.059 152.291,211.059 153.5,213.5C 147.552,217.653 140.885,220.153 133.5,221C 126.586,221.811 119.752,221.645 113,220.5C 112.333,218.167 112.333,215.833 113,213.5C 113.414,213.043 113.914,212.709 114.5,212.5C 126.464,214.504 137.797,212.838 148.5,207.5 Z"/></g>
</svg>
