<?xml version="1.0" encoding="UTF-8"?>
<!DOCTYPE svg PUBLIC "-//W3C//DTD SVG 1.1//EN" "http://www.w3.org/Graphics/SVG/1.1/DTD/svg11.dtd">
<svg xmlns="http://www.w3.org/2000/svg" version="1.1" width="256px" height="256px" style="shape-rendering:geometricPrecision; text-rendering:geometricPrecision; image-rendering:optimizeQuality; fill-rule:evenodd; clip-rule:evenodd" xmlns:xlink="http://www.w3.org/1999/xlink">
<g><path style="opacity:0.966" fill="#fa4454" d="M 206.5,142.5 C 210.542,126.647 219.875,122.481 234.5,130C 255.769,148.679 255.769,167.345 234.5,186C 215.095,198.452 194.428,201.119 172.5,194C 152.981,185.995 137.481,173.161 126,155.5C 113.672,163.164 105.006,173.831 100,187.5C 97.3531,211.848 108.186,223.682 132.5,223C 141.51,217.637 142.843,210.637 136.5,202C 132.195,198.842 127.528,197.842 122.5,199C 134.099,183.565 145.266,183.732 156,199.5C 163.936,223.794 155.77,239.961 131.5,248C 113.221,250.798 98.3875,244.965 87,230.5C 66.567,199.995 69.4003,171.828 95.5,146C 77.8355,142.713 61.1688,145.38 45.5,154C 31.7361,164.005 26.9028,177.172 31,193.5C 34.4117,202.457 40.5784,205.291 49.5,202C 52.1667,198 52.1667,194 49.5,190C 64.2626,192.364 69.0959,200.531 64,214.5C 56.1731,222.504 46.6731,225.337 35.5,223C 20.6274,219.126 11.4608,209.626 8,194.5C 2.91399,164.176 13.7473,141.676 40.5,127C 53.0936,120.58 66.4269,116.58 80.5,115C 51.3612,109.527 33.8612,92.36 28,63.5C 26.3522,45.1007 32.5189,29.934 46.5,18C 57.9817,9.98425 70.6483,7.31759 84.5,10C 105.01,13.192 119.844,24.0253 129,42.5C 131.9,50.5351 134.4,58.7017 136.5,67C 142.182,69.341 146.682,73.1744 150,78.5C 153.246,87.4355 151.412,95.1021 144.5,101.5C 146.771,109.488 152.104,113.988 160.5,115C 184.362,115.311 197.362,103.478 199.5,79.5C 199.294,70.9995 195.96,64.1662 189.5,59C 181.145,55.5937 175.312,58.0937 172,66.5C 170.855,72.7324 172.688,77.8991 177.5,82C 157.133,81.9685 150.633,72.4685 158,53.5C 171.143,34.8413 187.643,31.3413 207.5,43C 223.715,57.0017 229.215,74.5017 224,95.5C 217.949,120.549 202.116,134.715 176.5,138C 166.378,138.751 156.378,138.418 146.5,137C 158.588,157.253 176.255,169.419 199.5,173.5C 209.356,173.106 218.022,169.773 225.5,163.5C 229.528,155.755 228.195,148.922 221.5,143C 216.618,139.921 211.618,139.755 206.5,142.5 Z M 131.5,78.5 C 139.867,79.2371 142.701,83.5705 140,91.5C 136.547,94.7694 132.714,95.2694 128.5,93C 124.038,87.018 125.038,82.1847 131.5,78.5 Z M 96.5,84.5 C 105.791,82.7017 109.624,86.3684 108,95.5C 104.339,99.9762 100.006,100.643 95,97.5C 91.7433,92.7582 92.2433,88.4249 96.5,84.5 Z"/></g>
<g><path style="opacity:0.251" fill="#fa4454" d="M 206.5,142.5 C 205.833,143.167 205.833,143.167 206.5,142.5 Z"/></g>
</svg>
