<?xml version="1.0" encoding="UTF-8"?>
<!DOCTYPE svg PUBLIC "-//W3C//DTD SVG 1.1//EN" "http://www.w3.org/Graphics/SVG/1.1/DTD/svg11.dtd">
<svg xmlns="http://www.w3.org/2000/svg" version="1.1" width="256px" height="256px" style="shape-rendering:geometricPrecision; text-rendering:geometricPrecision; image-rendering:optimizeQuality; fill-rule:evenodd; clip-rule:evenodd" xmlns:xlink="http://www.w3.org/1999/xlink">
<g><path style="opacity:0.932" fill="#fa4454" d="M 34.5,7.5 C 46.4979,10.8894 57.9979,15.5561 69,21.5C 86.9141,12.6775 105.914,8.34412 126,8.5C 147.015,8.3057 166.849,12.9724 185.5,22.5C 197.013,16.3289 209.013,11.3289 221.5,7.5C 223.557,10.8646 224.223,14.3646 223.5,18C 212.571,20.9657 202.238,25.2991 192.5,31C 205.852,42.3721 211.352,56.8721 209,74.5C 208.339,78.6483 207.173,82.6483 205.5,86.5C 216.954,98.8543 222.287,113.521 221.5,130.5C 220.14,166.238 203.807,192.571 172.5,209.5C 177.695,221.085 182.695,232.751 187.5,244.5C 183.833,245.833 180.167,245.833 176.5,244.5C 172.103,234.039 167.436,223.706 162.5,213.5C 159.125,214.706 156.125,216.54 153.5,219C 155.906,227.455 158.239,235.955 160.5,244.5C 156.893,245.489 153.226,245.823 149.5,245.5C 148.295,238.012 146.461,230.679 144,223.5C 140.949,224.812 137.783,225.812 134.5,226.5C 133.504,232.798 133.17,239.132 133.5,245.5C 130.167,245.5 126.833,245.5 123.5,245.5C 123.83,239.132 123.496,232.798 122.5,226.5C 119.601,225.358 116.601,224.692 113.5,224.5C 112.149,231.238 110.482,237.904 108.5,244.5C 104.878,245.659 101.211,245.825 97.5,245C 99.8333,236.667 102.167,228.333 104.5,220C 101.875,217.54 98.8753,215.706 95.5,214.5C 90.7305,224.373 86.2305,234.373 82,244.5C 78.2564,245.626 74.423,245.793 70.5,245C 75.3057,233.584 80.3057,222.25 85.5,211C 46.9044,190.312 30.0711,158.145 35,114.5C 37.5581,103.381 42.7248,93.714 50.5,85.5C 43.3664,64.3713 47.6997,46.038 63.5,30.5C 53.386,24.7383 42.7193,20.2383 31.5,17C 32.5976,13.8735 33.5976,10.7068 34.5,7.5 Z M 111.5,19.5 C 133.636,17.5992 154.97,20.7659 175.5,29C 154.406,45.4285 138.573,65.9285 128,90.5C 117.792,64.9683 101.625,44.1349 79.5,28C 89.8977,23.6945 100.564,20.8612 111.5,19.5 Z M 80.5,53.5 C 94.1436,53.3111 100.977,59.9778 101,73.5C 96.2635,86.7851 87.4301,90.6184 74.5,85C 66.3702,77.9922 64.8702,69.8255 70,60.5C 72.9978,57.2623 76.4978,54.9289 80.5,53.5 Z M 169.5,53.5 C 185.351,53.1825 192.184,60.8492 190,76.5C 184.216,87.317 175.716,90.1504 164.5,85C 154.293,76.0145 153.96,66.6812 163.5,57C 165.432,55.5415 167.432,54.3748 169.5,53.5 Z M 67.5,106.5 C 87.2341,115.651 104.234,111.984 118.5,95.5C 122.365,105.596 125.532,115.93 128,126.5C 131.322,115.89 134.656,105.224 138,94.5C 151.514,111.545 168.18,115.545 188,106.5C 188.102,138.095 180.102,167.429 164,194.5C 142.078,222.596 119.078,223.596 95,197.5C 81.6935,178.203 73.3602,156.87 70,133.5C 68.4245,124.564 67.5912,115.564 67.5,106.5 Z M 80.5,195.5 C 52.4355,176.689 40.6022,150.355 45,116.5C 46.3078,108.216 49.9745,101.216 56,95.5C 56.0269,130.939 64.1935,164.272 80.5,195.5 Z M 177.5,193.5 C 192.059,162.883 199.559,130.55 200,96.5C 208.399,106.03 212.233,117.196 211.5,130C 210.997,157.184 199.664,178.35 177.5,193.5 Z"/></g>
<g><path style="opacity:0.872" fill="#fa4454" d="M 80.5,124.5 C 81.9015,128.879 83.7349,133.212 86,137.5C 91.6683,143.881 98.1683,145.048 105.5,141C 103.657,151.185 97.6574,155.518 87.5,154C 80.8056,149.951 77.4723,143.951 77.5,136C 78.1297,132.039 79.1297,128.206 80.5,124.5 Z"/></g>
<g><path style="opacity:0.871" fill="#fa4454" d="M 173.5,125.5 C 174.79,126.058 175.623,127.058 176,128.5C 178.372,136.11 177.706,143.443 174,150.5C 162.848,159.02 155.014,156.52 150.5,143C 150.833,142.5 151.167,142 151.5,141.5C 162.179,146.408 169.346,143.075 173,131.5C 173.495,129.527 173.662,127.527 173.5,125.5 Z"/></g>
<g><path style="opacity:0.867" fill="#fa4454" d="M 115.5,140.5 C 123.563,155.071 131.73,155.071 140,140.5C 142.458,150.14 139.625,157.64 131.5,163C 122.519,164.374 117.019,160.541 115,151.5C 114.245,147.745 114.411,144.078 115.5,140.5 Z"/></g>
<g><path style="opacity:0.847" fill="#fa4454" d="M 156.5,173.5 C 161.097,182.026 159.764,189.86 152.5,197C 145.055,200.631 139.222,198.798 135,191.5C 133.679,188.23 133.013,184.897 133,181.5C 140.034,189.413 147.034,189.413 154,181.5C 155.707,179.091 156.54,176.425 156.5,173.5 Z"/></g>
<g><path style="opacity:0.856" fill="#fa4454" d="M 99.5,174.5 C 101.101,179.946 104.434,184.113 109.5,187C 115.658,188.672 120.491,186.838 124,181.5C 124.678,190.972 120.511,196.972 111.5,199.5C 104.647,197.823 100.48,193.489 99,186.5C 98.2375,182.413 98.4042,178.413 99.5,174.5 Z"/></g>
</svg>
