<?xml version="1.0" encoding="UTF-8"?>
<!DOCTYPE svg PUBLIC "-//W3C//DTD SVG 1.1//EN" "http://www.w3.org/Graphics/SVG/1.1/DTD/svg11.dtd">
<svg xmlns="http://www.w3.org/2000/svg" version="1.1" width="256px" height="256px" style="shape-rendering:geometricPrecision; text-rendering:geometricPrecision; image-rendering:optimizeQuality; fill-rule:evenodd; clip-rule:evenodd" xmlns:xlink="http://www.w3.org/1999/xlink">
<g><path style="opacity:0.909" fill="#fa4454" d="M 119.5,9.5 C 129.712,9.31338 139.712,10.6467 149.5,13.5C 147.641,18.2234 145.474,22.8901 143,27.5C 140.747,33.5867 138.914,39.7533 137.5,46C 159.619,45.1527 179.619,51.1527 197.5,64C 234.097,95.3658 248.597,134.866 241,182.5C 232.299,212.202 213.132,231.702 183.5,241C 164.488,245.418 145.321,246.585 126,244.5C 99.8736,249.189 75.0403,245.355 51.5,233C 27.7133,217.287 14.2133,195.121 11,166.5C 6.65094,124.517 20.4843,90.0175 52.5,63C 66.6339,53.2326 82.3006,47.7326 99.5,46.5C 98.412,36.8676 98.2453,27.2009 99,17.5C 105.443,13.5249 112.276,10.8582 119.5,9.5 Z M 123.5,19.5 C 127.306,19.4121 130.973,20.0787 134.5,21.5C 127.795,36.2097 125.795,51.543 128.5,67.5C 120.806,67.4022 115.639,63.7356 113,56.5C 108.991,45.7867 107.825,34.7867 109.5,23.5C 114.123,21.5244 118.79,20.1911 123.5,19.5 Z M 99.5,56.5 C 100.5,56.5 101.5,56.5 102.5,56.5C 108.779,76.3045 121.446,81.9712 140.5,73.5C 138.961,67.9315 137.961,62.2648 137.5,56.5C 153.57,55.4343 168.57,58.9343 182.5,67C 172.857,76.6541 161.19,82.3208 147.5,84C 121.864,88.4876 97.5309,84.821 74.5,73C 72.2406,71.2854 70.0739,69.4521 68,67.5C 67.3123,66.6683 67.479,66.0016 68.5,65.5C 78.4629,60.7641 88.7962,57.7641 99.5,56.5 Z M 56.5,72.5 C 57.552,72.3505 58.552,72.5172 59.5,73C 71.2674,85.0495 85.6008,92.0495 102.5,94C 128.955,98.6796 154.288,95.3463 178.5,84C 182.967,80.5349 187.133,76.7016 191,72.5C 217.519,94.7046 231.685,123.205 233.5,158C 230.906,205.263 205.906,230.93 158.5,235C 147.985,235.722 137.485,235.555 127,234.5C 98.9487,239.823 73.1153,234.656 49.5,219C 26.9787,197.75 17.4787,171.584 21,140.5C 24.1898,113.114 36.0231,90.4469 56.5,72.5 Z"/></g>
<g><path style="opacity:0.929" fill="#fa4454" d="M 85.5,99.5 C 94.0665,110.119 100.733,121.953 105.5,135C 91.8126,135.654 78.146,135.32 64.5,134C 70.3812,121.722 77.3812,110.222 85.5,99.5 Z"/></g>
<g><path style="opacity:0.948" fill="#fa4454" d="M 166.5,100.5 C 182.773,101.262 189.607,109.595 187,125.5C 180.893,136.535 172.06,139.368 160.5,134C 152.069,126.996 150.235,118.496 155,108.5C 158.15,104.689 161.983,102.023 166.5,100.5 Z"/></g>
<g><path style="opacity:0.942" fill="#fa4454" d="M 223.5,160.5 C 220.974,173.554 214.807,184.554 205,193.5C 203.47,189.91 202.136,186.243 201,182.5C 194.816,185.67 188.649,188.836 182.5,192C 185.217,196.624 186.551,201.458 186.5,206.5C 176.079,212.085 165.079,216.085 153.5,218.5C 152.504,213.538 151.837,208.538 151.5,203.5C 144.134,204.337 136.801,205.337 129.5,206.5C 129.167,206.833 128.833,207.167 128.5,207.5C 129.411,211.788 130.078,216.121 130.5,220.5C 119.764,220.763 109.097,220.097 98.5,218.5C 99.2438,213.781 100.244,209.114 101.5,204.5C 95.3386,202.234 89.0053,201.067 82.5,201C 81.4184,205.156 80.2518,209.322 79,213.5C 61.4265,206.594 47.4265,195.261 37,179.5C 33.7325,173.531 31.5659,167.197 30.5,160.5C 40.8641,162.674 51.1975,165.008 61.5,167.5C 59.6925,173.063 58.3591,178.73 57.5,184.5C 63.3743,185.229 69.2076,186.229 75,187.5C 75.9454,187.095 76.6121,186.428 77,185.5C 78.3281,180.522 79.4947,175.522 80.5,170.5C 88.1696,170.778 95.8363,171.111 103.5,171.5C 103.807,177.093 103.473,182.593 102.5,188C 110.495,188.643 118.495,189.143 126.5,189.5C 126.5,183.833 126.5,178.167 126.5,172.5C 134.5,172.5 142.5,172.5 150.5,172.5C 150.916,177.493 151.249,182.493 151.5,187.5C 158.874,186.382 166.207,185.049 173.5,183.5C 173.867,178.962 174.2,174.462 174.5,170C 191.065,167.906 207.398,164.74 223.5,160.5 Z"/></g>
</svg>
