<?xml version="1.0" encoding="UTF-8"?>
<!DOCTYPE svg PUBLIC "-//W3C//DTD SVG 1.1//EN" "http://www.w3.org/Graphics/SVG/1.1/DTD/svg11.dtd">
<svg xmlns="http://www.w3.org/2000/svg" version="1.1" width="256px" height="256px" style="shape-rendering:geometricPrecision; text-rendering:geometricPrecision; image-rendering:optimizeQuality; fill-rule:evenodd; clip-rule:evenodd" xmlns:xlink="http://www.w3.org/1999/xlink">
<g><path style="opacity:0.955" fill="#fa4454" d="M 37.5,10.5 C 43.0698,9.41608 47.5698,11.0827 51,15.5C 59.5841,33.0158 69.9174,49.3491 82,64.5C 82.6667,65.5 82.6667,66.5 82,67.5C 76.6123,72.3849 71.7789,77.7183 67.5,83.5C 51.3567,70.5883 34.0233,59.4217 15.5,50C 8.75347,44.9431 7.75347,38.9431 12.5,32C 17.7513,28.9159 23.0846,28.7492 28.5,31.5C 28.5876,27.6195 28.7542,23.6195 29,19.5C 30.6878,15.3148 33.5212,12.3148 37.5,10.5 Z"/></g>
<g><path style="opacity:0.955" fill="#fa4454" d="M 208.5,10.5 C 217.213,9.22308 222.213,12.8897 223.5,21.5C 222.92,25.8469 221.754,29.8469 220,33.5C 228.559,28.6377 236.226,29.6377 243,36.5C 245.421,41.884 244.588,46.7173 240.5,51C 220.44,59.1922 201.773,69.6922 184.5,82.5C 180.206,76.8705 175.539,71.5372 170.5,66.5C 183.005,50.84 193.505,33.84 202,15.5C 203.965,13.4497 206.132,11.783 208.5,10.5 Z"/></g>
<g><path style="opacity:0.961" fill="#fa4454" d="M 115.5,60.5 C 149.629,57.4666 172.796,71.7999 185,103.5C 191.925,133.07 182.925,156.404 158,173.5C 157.5,183.161 157.334,192.828 157.5,202.5C 154.167,202.5 150.833,202.5 147.5,202.5C 147.666,194.493 147.5,186.493 147,178.5C 144.618,179.554 142.118,180.221 139.5,180.5C 139.5,187.833 139.5,195.167 139.5,202.5C 136.167,202.5 132.833,202.5 129.5,202.5C 129.5,195.833 129.5,189.167 129.5,182.5C 127.167,182.5 124.833,182.5 122.5,182.5C 122.5,189.167 122.5,195.833 122.5,202.5C 119.167,202.5 115.833,202.5 112.5,202.5C 112.5,195.167 112.5,187.833 112.5,180.5C 110.173,180.335 108.007,179.669 106,178.5C 105.5,186.493 105.334,194.493 105.5,202.5C 102.167,202.5 98.8333,202.5 95.5,202.5C 95.8318,192.81 95.4984,183.144 94.5,173.5C 69.4476,156.035 60.6143,132.369 68,102.5C 76.5778,80.0778 92.4111,66.0778 115.5,60.5 Z M 92.5,104.5 C 109.69,108.843 114.19,118.843 106,134.5C 96.8544,142.157 87.8544,141.823 79,133.5C 72.2108,118.417 76.7108,108.75 92.5,104.5 Z M 154.5,105.5 C 171.267,104.43 178.434,112.097 176,128.5C 170.017,139.757 161.183,142.59 149.5,137C 142.557,130.818 140.724,123.318 144,114.5C 146.468,110.199 149.968,107.199 154.5,105.5 Z M 125.5,132.5 C 126.376,132.369 127.043,132.702 127.5,133.5C 131.459,140.587 135.792,147.42 140.5,154C 131.167,154.667 121.833,154.667 112.5,154C 116.97,146.889 121.304,139.722 125.5,132.5 Z"/></g>
<g><path style="opacity:0.957" fill="#fa4454" d="M 71.5,165.5 C 76.9556,170.446 82.6223,175.279 88.5,180C 73.6971,198.487 60.8637,218.321 50,239.5C 40.9275,244.895 33.9275,242.895 29,233.5C 28.7542,229.38 28.5876,225.38 28.5,221.5C 22.1363,224.682 16.303,224.015 11,219.5C 7.89864,212.695 9.39864,207.195 15.5,203C 35.7831,192.708 54.4498,180.208 71.5,165.5 Z"/></g>
<g><path style="opacity:0.954" fill="#fa4454" d="M 178.5,166.5 C 196.828,180.607 216.828,192.107 238.5,201C 245.643,206.666 246.31,213 240.5,220C 237.456,221.923 234.123,222.756 230.5,222.5C 226.68,222.381 223.013,221.881 219.5,221C 225.312,228.641 224.646,235.641 217.5,242C 211.306,243.711 206.14,242.211 202,237.5C 192.119,216.218 179.619,196.718 164.5,179C 169.957,175.71 174.623,171.543 178.5,166.5 Z"/></g>
</svg>
