<?xml version="1.0" encoding="UTF-8"?>
<!DOCTYPE svg PUBLIC "-//W3C//DTD SVG 1.1//EN" "http://www.w3.org/Graphics/SVG/1.1/DTD/svg11.dtd">
<svg xmlns="http://www.w3.org/2000/svg" version="1.1" width="256px" height="256px" style="shape-rendering:geometricPrecision; text-rendering:geometricPrecision; image-rendering:optimizeQuality; fill-rule:evenodd; clip-rule:evenodd" xmlns:xlink="http://www.w3.org/1999/xlink">
<g><path style="opacity:0.982" fill="#fa4454" d="M 7.5,7.5 C 87.5,7.5 167.5,7.5 247.5,7.5C 247.667,48.8347 247.5,90.168 247,131.5C 241.174,141.91 232.84,149.576 222,154.5C 200.562,146.802 185.062,153.302 175.5,174C 173.5,174.667 171.5,174.667 169.5,174C 155.892,166.332 144.225,168.665 134.5,181C 129.833,181.667 125.167,181.667 120.5,181C 114.49,172.164 106.157,168.497 95.5,170C 90.5054,172.014 85.5054,173.681 80.5,175C 70.6494,152.484 54.4828,145.984 32,155.5C 20.6539,150.821 12.6539,142.821 8,131.5C 7.50001,90.168 7.33334,48.8347 7.5,7.5 Z M 37.5,71.5 C 52.8476,71.6772 60.0143,79.3439 59,94.5C 53.0898,107.693 43.5898,111.193 30.5,105C 22.1456,96.9408 20.979,88.1075 27,78.5C 29.9978,75.2623 33.4978,72.9289 37.5,71.5 Z M 210.5,71.5 C 223.169,71.337 230.503,77.5036 232.5,90C 230.526,102.647 223.192,108.647 210.5,108C 198.091,103.611 193.591,95.111 197,82.5C 200.213,77.1075 204.713,73.4408 210.5,71.5 Z M 109.5,134.5 C 102.289,141.509 93.6226,144.009 83.5,142C 66.8264,136.487 59.3264,124.987 61,107.5C 66.2598,90.5822 77.7598,82.7488 95.5,84C 115.75,90.9998 122.917,104.833 117,125.5C 115.389,129.275 112.889,132.275 109.5,134.5 Z M 184.5,134.5 C 177.289,141.509 168.623,144.009 158.5,142C 141.841,136.524 134.341,125.024 136,107.5C 141.26,90.5822 152.76,82.7488 170.5,84C 188.205,89.2327 196.039,101.066 194,119.5C 192.612,125.703 189.445,130.703 184.5,134.5 Z"/></g>
<g><path style="opacity:0.897" fill="#fa4454" d="M 35.5,76.5 C 44.9179,77.0675 48.0845,81.7342 45,90.5C 40.3333,95.8333 35.6667,95.8333 31,90.5C 27.9967,84.2465 29.4967,79.5798 35.5,76.5 Z"/></g>
<g><path style="opacity:0.892" fill="#fa4454" d="M 208.5,76.5 C 218.537,77.452 221.37,82.452 217,91.5C 213.017,95.215 208.85,95.3817 204.5,92C 200.426,85.3957 201.759,80.229 208.5,76.5 Z"/></g>
<g><path style="opacity:0.939" fill="#fa4454" d="M 80.5,90.5 C 91.7565,89.4271 98.4232,94.4271 100.5,105.5C 97.5942,119.119 89.5942,123.619 76.5,119C 69.0601,112.735 67.5601,105.235 72,96.5C 74.3218,93.6047 77.1552,91.6047 80.5,90.5 Z"/></g>
<g><path style="opacity:0.939" fill="#fa4454" d="M 155.5,90.5 C 166.756,89.4271 173.423,94.4271 175.5,105.5C 172.594,119.119 164.594,123.619 151.5,119C 144.06,112.735 142.56,105.235 147,96.5C 149.322,93.6047 152.155,91.6047 155.5,90.5 Z"/></g>
<g><path style="opacity:0.723" fill="#fa4454" d="M 48.5,95.5 C 53.3051,96.5995 54.3051,99.0995 51.5,103C 48.1861,104.165 46.1861,102.998 45.5,99.5C 46.1716,97.8405 47.1716,96.5072 48.5,95.5 Z"/></g>
<g><path style="opacity:0.788" fill="#fa4454" d="M 221.5,95.5 C 226.594,97.8721 226.761,100.539 222,103.5C 217.544,101.031 217.377,98.3648 221.5,95.5 Z"/></g>
<g><path style="opacity:0.884" fill="#fa4454" d="M 109.5,134.5 C 98.5604,138.391 94.3938,134.724 97,123.5C 104.131,118.386 108.965,120.053 111.5,128.5C 110.628,130.45 109.961,132.45 109.5,134.5 Z"/></g>
<g><path style="opacity:0.872" fill="#fa4454" d="M 184.5,134.5 C 173.56,138.391 169.394,134.724 172,123.5C 179.191,118.391 184.024,120.058 186.5,128.5C 185.822,130.516 185.156,132.516 184.5,134.5 Z"/></g>
<g><path style="opacity:0.96" fill="#fa4454" d="M 43.5,161.5 C 61.2884,160.457 70.1217,168.79 70,186.5C 52.3084,202.888 43.9751,223.222 45,247.5C 20.2059,225.53 14.8725,199.53 29,169.5C 33.4076,165.883 38.241,163.217 43.5,161.5 Z"/></g>
<g><path style="opacity:0.959" fill="#fa4454" d="M 200.5,161.5 C 209.43,160.311 217.43,162.478 224.5,168C 229.806,174.906 232.972,182.739 234,191.5C 235.72,214.055 228.054,232.721 211,247.5C 211.03,229.261 206.03,212.594 196,197.5C 193,193.167 189.333,189.5 185,186.5C 184.608,174.6 189.775,166.267 200.5,161.5 Z"/></g>
<g><path style="opacity:0.943" fill="#fa4454" d="M 95.5,179.5 C 106.952,178.448 113.618,183.615 115.5,195C 103.854,207.399 97.5212,222.232 96.5,239.5C 80.2647,224.037 76.7647,206.037 86,185.5C 88.8426,182.837 92.0093,180.837 95.5,179.5 Z"/></g>
<g><path style="opacity:0.943" fill="#fa4454" d="M 150.5,179.5 C 164.901,178.399 172.735,185.065 174,199.5C 175.993,215.699 170.826,229.032 158.5,239.5C 158.404,223.03 152.571,209.03 141,197.5C 140.059,189.288 143.226,183.288 150.5,179.5 Z"/></g>
</svg>
