<?xml version="1.0" encoding="UTF-8"?>
<!DOCTYPE svg PUBLIC "-//W3C//DTD SVG 1.1//EN" "http://www.w3.org/Graphics/SVG/1.1/DTD/svg11.dtd">
<svg xmlns="http://www.w3.org/2000/svg" version="1.1" width="256px" height="256px" style="shape-rendering:geometricPrecision; text-rendering:geometricPrecision; image-rendering:optimizeQuality; fill-rule:evenodd; clip-rule:evenodd" xmlns:xlink="http://www.w3.org/1999/xlink">
<g><path style="opacity:0.975" fill="#fa4454" d="M 113.5,10.5 C 169.582,7.60952 209.748,31.2762 234,81.5C 249.962,124.833 243.628,164.499 215,200.5C 198.789,219.194 178.622,231.527 154.5,237.5C 145.508,233.844 140.841,227.177 140.5,217.5C 143.016,207.781 145.849,198.114 149,188.5C 150.543,181.578 151.543,174.578 152,167.5C 169.551,154.289 186.218,139.956 202,124.5C 202.713,117.4 201.38,110.733 198,104.5C 192.431,111.115 185.431,115.115 177,116.5C 170.956,116.46 167.29,113.46 166,107.5C 164.468,88.2417 172.801,75.2417 191,68.5C 192.482,58.4287 190.482,49.0953 185,40.5C 166.342,53.1505 148.842,67.3172 132.5,83C 115.285,84.1082 100.285,90.4415 87.5,102C 61.3041,107.597 38.3041,119.264 18.5,137C 24.729,140.214 31.3956,141.714 38.5,141.5C 49.9332,139.971 61.2665,138.137 72.5,136C 53.4602,143.104 35.2935,151.937 18,162.5C 3.25825,107.544 18.4249,63.0442 63.5,29C 78.9126,19.1437 95.5793,12.977 113.5,10.5 Z"/></g>
<g><path style="opacity:0.846" fill="#fa4454" d="M 125.5,92.5 C 126.833,92.5 128.167,92.5 129.5,92.5C 129.395,96.3189 128.562,99.9855 127,103.5C 126.196,104.804 125.029,105.471 123.5,105.5C 117.522,104.226 111.522,103.059 105.5,102C 111.616,97.4399 118.282,94.2732 125.5,92.5 Z"/></g>
</svg>
