<?xml version="1.0" encoding="UTF-8"?>
<!DOCTYPE svg PUBLIC "-//W3C//DTD SVG 1.1//EN" "http://www.w3.org/Graphics/SVG/1.1/DTD/svg11.dtd">
<svg xmlns="http://www.w3.org/2000/svg" version="1.1" width="256px" height="256px" style="shape-rendering:geometricPrecision; text-rendering:geometricPrecision; image-rendering:optimizeQuality; fill-rule:evenodd; clip-rule:evenodd" xmlns:xlink="http://www.w3.org/1999/xlink">
<g><path style="opacity:0.969" fill="#fa4454" d="M 115.5,10.5 C 165.664,7.99538 203.831,27.9954 230,70.5C 252.463,116.165 248.796,159.498 219,200.5C 185.808,238.341 144.641,251.508 95.5,240C 47.0465,223.547 18.8798,190.047 11,139.5C 8.00839,89.3122 27.8417,51.1456 70.5,25C 84.874,17.8185 99.874,12.9851 115.5,10.5 Z M 104.5,22.5 C 105.873,22.3433 107.207,22.51 108.5,23C 88.8011,33.7178 79.1344,50.3844 79.5,73C 78.4831,92.9584 85.8164,108.958 101.5,121C 106.534,123.789 111.868,125.789 117.5,127C 148.212,125.587 167.045,139.753 174,169.5C 176.699,187.348 173.032,203.682 163,218.5C 150.365,231.876 134.865,237.042 116.5,234C 62,224.833 30.1667,193 21,138.5C 18.7728,87.7866 40.2728,51.2866 85.5,29C 91.8928,26.6615 98.2261,24.4949 104.5,22.5 Z M 123.5,51.5 C 142.18,51.8638 149.68,61.1971 146,79.5C 137.993,92.1262 127.493,94.6262 114.5,87C 105.167,76.6667 105.167,66.3333 114.5,56C 117.324,53.9212 120.324,52.4212 123.5,51.5 Z"/></g>
<g><path style="opacity:0.947" fill="#fa4454" d="M 123.5,162.5 C 140.311,162.477 148.477,170.81 148,187.5C 142.139,203.675 131.306,208.175 115.5,201C 103.5,189.333 103.5,177.667 115.5,166C 118.158,164.522 120.825,163.355 123.5,162.5 Z"/></g>
</svg>
