<?xml version="1.0" encoding="UTF-8"?>
<!DOCTYPE svg PUBLIC "-//W3C//DTD SVG 1.1//EN" "http://www.w3.org/Graphics/SVG/1.1/DTD/svg11.dtd">
<svg xmlns="http://www.w3.org/2000/svg" version="1.1" width="256px" height="256px" style="shape-rendering:geometricPrecision; text-rendering:geometricPrecision; image-rendering:optimizeQuality; fill-rule:evenodd; clip-rule:evenodd" xmlns:xlink="http://www.w3.org/1999/xlink">
<g><path style="opacity:0.938" fill="#fa4454" d="M 128.5,8.5 C 140.472,9.07186 148.305,15.0719 152,26.5C 152.771,29.8591 153.605,33.1925 154.5,36.5C 154.167,36.8333 153.833,37.1667 153.5,37.5C 147.817,34.6561 141.817,32.9895 135.5,32.5C 135.5,35.1667 135.5,37.8333 135.5,40.5C 142.551,41.0622 148.551,43.7289 153.5,48.5C 151.46,61.705 143.96,69.3716 131,71.5C 127.617,71.4834 124.45,70.6501 121.5,69C 114.484,63.4702 110.151,56.3036 108.5,47.5C 113.153,43.8878 118.486,41.7212 124.5,41C 125.444,38.2809 125.777,35.4475 125.5,32.5C 119.731,33.4237 114.064,34.757 108.5,36.5C 109.338,22.767 116.005,13.4337 128.5,8.5 Z"/></g>
<g><path style="opacity:0.966" fill="#fa4454" d="M 106.5,67.5 C 110.656,70.8105 114.99,73.9772 119.5,77C 133.028,82.3809 144.361,79.3809 153.5,68C 155.289,67.4795 156.956,67.8129 158.5,69C 161.333,71.8333 164.167,74.6667 167,77.5C 173.417,88.0034 180.084,98.3367 187,108.5C 195.76,104.538 204.593,100.704 213.5,97C 227.222,94.4056 233.722,99.9056 233,113.5C 231.878,115.624 230.378,117.457 228.5,119C 212.258,126.371 196.091,133.871 180,141.5C 173.759,134.015 167.759,126.348 162,118.5C 153.572,135.263 155.072,151.096 166.5,166C 177.551,165.183 188.551,165.849 199.5,168C 211.114,170.25 216.614,177.084 216,188.5C 210.253,198.747 202.087,206.413 191.5,211.5C 175.687,206.285 160.02,200.785 144.5,195C 152.5,192.333 160.5,189.667 168.5,187C 167.627,184.182 166.294,181.682 164.5,179.5C 153.034,183.266 141.534,186.933 130,190.5C 118.466,186.933 106.966,183.266 95.5,179.5C 94.914,179.709 94.414,180.043 94,180.5C 93.3581,182.762 92.5248,184.929 91.5,187C 121.821,196.94 152.154,206.774 182.5,216.5C 185.397,225.467 188.73,234.3 192.5,243C 192.167,243.5 191.833,244 191.5,244.5C 176.536,239.568 161.536,234.734 146.5,230C 117.387,229.222 90.0532,221.889 64.5,208C 58.3333,203.167 52.8333,197.667 48,191.5C 45.0808,184.432 46.2475,178.265 51.5,173C 64.4905,166.667 78.1572,164.501 92.5,166.5C 94.374,166.61 95.874,165.944 97,164.5C 108.013,149.624 109.347,133.958 101,117.5C 95.0474,125.788 88.7141,133.788 82,141.5C 65.424,133.795 48.924,125.962 32.5,118C 27.7684,112.965 27.2684,107.465 31,101.5C 37.0361,96.2775 43.8694,95.1109 51.5,98C 59.2895,101.646 67.1228,105.146 75,108.5C 82.3932,98.1038 89.3932,87.4372 96,76.5C 99.1033,72.886 102.603,69.886 106.5,67.5 Z"/></g>
<g><path style="opacity:0.868" fill="#fa4454" d="M 75.5,222.5 C 84.733,226.299 94.0664,229.799 103.5,233C 92.197,236.601 80.8636,240.101 69.5,243.5C 68.8333,243.167 68.1667,242.833 67.5,242.5C 70.3688,235.889 73.0355,229.222 75.5,222.5 Z"/></g>
</svg>
