<?xml version="1.0" encoding="UTF-8"?>
<!DOCTYPE svg PUBLIC "-//W3C//DTD SVG 1.1//EN" "http://www.w3.org/Graphics/SVG/1.1/DTD/svg11.dtd">
<svg xmlns="http://www.w3.org/2000/svg" version="1.1" width="256px" height="256px" style="shape-rendering:geometricPrecision; text-rendering:geometricPrecision; image-rendering:optimizeQuality; fill-rule:evenodd; clip-rule:evenodd" xmlns:xlink="http://www.w3.org/1999/xlink">
<g><path style="opacity:0.966" fill="#fa4454" d="M 126.5,13.5 C 127.586,13.62 128.253,14.2867 128.5,15.5C 133.372,35.9893 138.705,56.3226 144.5,76.5C 163.857,64.6429 179.357,48.9762 191,29.5C 193.767,49.4715 190.767,68.4715 182,86.5C 180.285,88.7594 178.452,90.9261 176.5,93C 184.005,97.127 191.672,97.4603 199.5,94C 208.296,89.8535 216.13,84.3535 223,77.5C 225.293,94.3236 221.627,109.657 212,123.5C 208.749,127.422 204.916,130.588 200.5,133C 217.757,139.129 230.591,133.962 239,117.5C 240.215,141.86 232.715,163.026 216.5,181C 219.586,184.017 223.252,185.017 227.5,184C 234.771,181.948 241.271,178.448 247,173.5C 247.682,188.453 243.349,201.787 234,213.5C 222.502,226.675 209.002,237.175 193.5,245C 179.821,245.833 166.154,245.666 152.5,244.5C 149.284,233.468 146.617,222.302 144.5,211C 147.222,196.499 149.889,181.999 152.5,167.5C 168.885,168.803 185.219,169.47 201.5,169.5C 197.644,156.079 193.478,142.746 189,129.5C 186.613,123.057 183.446,117.057 179.5,111.5C 167.435,109.569 163.268,114.569 167,126.5C 168.167,127.667 169.333,128.833 170.5,130C 173.687,130.001 176.52,130.834 179,132.5C 179.572,139.553 180.405,146.553 181.5,153.5C 166.462,150.432 151.795,145.599 137.5,139C 145.327,127.021 145.494,114.855 138,102.5C 131,94.5 124,94.5 117,102.5C 109.901,114.415 109.734,126.415 116.5,138.5C 102.773,145.74 88.4394,150.74 73.5,153.5C 74.5951,146.553 75.4284,139.553 76,132.5C 78.4797,130.834 81.313,130.001 84.5,130C 91.1572,123.62 91.1572,117.287 84.5,111C 81.438,110.259 78.438,110.425 75.5,111.5C 71.5541,117.057 68.3875,123.057 66,129.5C 61.5225,142.746 57.3558,156.079 53.5,169.5C 69.7813,169.47 86.1146,168.803 102.5,167.5C 105.111,181.999 107.778,196.499 110.5,211C 108.383,222.302 105.716,233.468 102.5,244.5C 88.8455,245.666 75.1788,245.833 61.5,245C 43.0067,236.179 27.84,223.346 16,206.5C 9.82085,196.307 7.15418,185.307 8,173.5C 15.0782,180.524 23.5782,184.024 33.5,184C 35.6175,183.74 37.2842,182.74 38.5,181C 22.2748,162.995 14.7748,141.828 16,117.5C 24.4093,133.962 37.2427,139.129 54.5,133C 41.0214,124.228 33.5214,111.728 32,95.5C 31.3333,89.5 31.3333,83.5 32,77.5C 41.1102,87.4402 52.2769,93.7735 65.5,96.5C 70.1057,96.28 74.439,95.1133 78.5,93C 71.1966,84.8907 66.6966,75.3907 65,64.5C 63.5014,52.8722 63.1681,41.2055 64,29.5C 75.6428,48.9762 91.1428,64.6429 110.5,76.5C 116.613,55.7137 121.947,34.7137 126.5,13.5 Z"/></g>
</svg>
