<?xml version="1.0" encoding="UTF-8"?>
<!DOCTYPE svg PUBLIC "-//W3C//DTD SVG 1.1//EN" "http://www.w3.org/Graphics/SVG/1.1/DTD/svg11.dtd">
<svg xmlns="http://www.w3.org/2000/svg" version="1.1" width="256px" height="256px" style="shape-rendering:geometricPrecision; text-rendering:geometricPrecision; image-rendering:optimizeQuality; fill-rule:evenodd; clip-rule:evenodd" xmlns:xlink="http://www.w3.org/1999/xlink">
<g><path style="opacity:0.957" fill="#fa4454" d="M 111.5,26.5 C 123.598,26.0475 135.598,26.8808 147.5,29C 162.352,36.7985 164.352,47.1318 153.5,60C 147.212,64.3236 140.212,66.3236 132.5,66C 121.28,68.9124 114.446,76.0791 112,87.5C 109.599,108.383 118.433,121.717 138.5,127.5C 138.779,124.882 139.446,122.382 140.5,120C 120.783,112.736 115.283,99.5697 124,80.5C 125.5,79 127,77.5 128.5,76C 140.673,75.7214 151.507,71.8881 161,64.5C 168.934,55.2148 170.934,44.8814 167,33.5C 182.26,39.0452 196.426,46.5452 209.5,56C 220.3,68.1287 217.967,77.1287 202.5,83C 194.036,85.3438 187.536,82.8438 183,75.5C 181.86,71.6115 182.693,68.2781 185.5,65.5C 184,63.1667 182.5,60.8333 181,58.5C 171.045,68.1231 171.211,77.6231 181.5,87C 195.629,94.9118 208.462,93.0785 220,81.5C 222.308,78.0775 224.142,74.4108 225.5,70.5C 243.915,86.2438 250.415,105.91 245,129.5C 235.907,148.196 221.74,153.696 202.5,146C 197.741,141.509 196.241,136.009 198,129.5C 201.711,123.31 207.211,120.644 214.5,121.5C 214.292,119.08 214.626,116.747 215.5,114.5C 203.996,112.169 195.496,116.503 190,127.5C 188.006,132.888 188.172,138.221 190.5,143.5C 189.667,143.833 188.833,144.167 188,144.5C 180.857,143.756 173.691,143.256 166.5,143C 179.161,126.997 178.494,111.663 164.5,97C 159.179,93.2551 153.346,90.7551 147,89.5C 146.304,92.4781 145.804,95.4781 145.5,98.5C 161.494,100.472 168.327,109.472 166,125.5C 163.517,134.322 158.351,141.155 150.5,146C 139.933,149.95 129.6,154.45 119.5,159.5C 114.08,140.124 101.747,133.291 82.5,139C 72.7158,145.74 71.0491,154.074 77.5,164C 80.483,163.529 82.483,161.696 83.5,158.5C 80.3047,153.027 81.638,148.86 87.5,146C 96.8423,143.336 104.009,146.17 109,154.5C 109.817,157.964 109.483,161.298 108,164.5C 92.1015,177.266 74.2682,181.099 54.5,176C 40.011,168.196 35.8443,156.696 42,141.5C 47.0236,136.215 53.1903,134.215 60.5,135.5C 60.9629,132.518 61.2962,129.518 61.5,126.5C 39.471,126.026 29.3043,136.693 31,158.5C 31.2734,160.101 31.7734,161.601 32.5,163C 28.8859,161.422 25.7193,158.922 23,155.5C 10.5641,138.654 6.56405,119.988 11,99.5C 17.8686,109.351 27.3686,114.017 39.5,113.5C 59.6954,113.155 75.5287,104.822 87,88.5C 91.267,80.1778 92.267,71.5111 90,62.5C 86.2554,54.8737 80.0888,51.2071 71.5,51.5C 71.5,54.1667 71.5,56.8333 71.5,59.5C 76.382,59.175 79.882,61.175 82,65.5C 83.5361,78.9281 78.7027,89.4281 67.5,97C 55.6621,103.792 42.9955,106.126 29.5,104C 18.2653,99.3484 14.7653,91.1817 19,79.5C 20.7292,73.7034 23.7292,68.7034 28,64.5C 29.8423,74.3424 35.6757,80.1757 45.5,82C 50.1935,82.5639 54.8602,82.3973 59.5,81.5C 59.4378,78.247 58.6044,75.247 57,72.5C 46.4139,76.6571 39.5806,73.3237 36.5,62.5C 36.9441,58.3784 38.4441,54.7118 41,51.5C 57.82,39.0105 76.6533,31.3439 97.5,28.5C 95.0208,47.521 103.354,56.3544 122.5,55C 126.161,54.171 129.495,52.671 132.5,50.5C 131,48.1667 129.5,45.8333 128,43.5C 120.622,49.1386 113.622,48.8053 107,42.5C 105.496,38.9613 105.163,35.2946 106,31.5C 107.352,29.251 109.185,27.5844 111.5,26.5 Z"/></g>
<g><path style="opacity:0.931" fill="#fa4454" d="M 164.5,152.5 C 166.604,152.201 168.604,152.534 170.5,153.5C 164.762,161.743 158.095,169.243 150.5,176C 128.274,191.228 111.441,211.061 100,235.5C 94.9243,241.234 90.7576,240.734 87.5,234C 89.3284,226.347 91.995,219.014 95.5,212C 109.062,207.938 117.729,199.105 121.5,185.5C 118.854,184.449 116.187,183.949 113.5,184C 111.045,192.122 106.045,198.122 98.5,202C 79.8023,207.463 61.8023,205.797 44.5,197C 36.648,190.859 31.8146,183.026 30,173.5C 51.0877,187.884 73.5877,190.384 97.5,181C 110.729,173.219 124.395,166.219 138.5,160C 147.114,156.851 155.781,154.351 164.5,152.5 Z"/></g>
</svg>
